M48
; DRILL file {KiCad 8.0.4} date 2024-09-09T14:24:57+0900
; FORMAT={-:-/ absolute / metric / decimal}
; #@! TF.CreationDate,2024-09-09T14:24:57+09:00
; #@! TF.GenerationSoftware,Kicad,Pcbnew,8.0.4
; #@! TF.FileFunction,Plated,1,6,PTH
FMAT,2
METRIC
; #@! TA.AperFunction,Plated,PTH,ViaDrill
T1C0.300
; #@! TA.AperFunction,Plated,PTH,ViaDrill
T2C0.500
; #@! TA.AperFunction,Plated,PTH,ComponentDrill
T3C0.600
; #@! TA.AperFunction,Plated,PTH,ComponentDrill
T4C1.000
; #@! TA.AperFunction,Plated,PTH,ComponentDrill
T5C1.020
; #@! TA.AperFunction,Plated,PTH,ViaDrill
T6C3.100
; #@! TA.AperFunction,Plated,PTH,ViaDrill
T7C3.200
; #@! TA.AperFunction,Plated,PTH,ComponentDrill
T8C4.500
%
G90
G05
T1
X87.894Y-74.205
X91.25Y-72.752
X91.25Y-75.8
X95.082Y-74.868
X95.098Y-73.647
X95.106Y-80.12
X95.921Y-77.71
X96.225Y-73.197
X96.225Y-75.069
X96.632Y-69.972
X96.632Y-82.892
X96.784Y-77.05
X96.911Y-129.171
X97.648Y-77.761
X98.308Y-130.187
X98.867Y-94.017
X100.391Y-71.716
X100.67Y-88.759
X102.398Y-74.078
X105.145Y-88.256
X105.145Y-90.156
X105.145Y-125.956
X105.145Y-127.856
X105.623Y-74.104
X105.623Y-78.066
X105.979Y-70.37
X106.919Y-79.057
X107.846Y-80.721
X108.036Y-81.292
X110.297Y-93.433
X112.285Y-76.364
X112.285Y-78.124
X112.329Y-81.038
X113.395Y-148.956
X113.472Y-74.561
X115.895Y-141.756
X115.895Y-143.656
X116.571Y-61.175
X116.901Y-83.997
X117.841Y-62.191
X118.831Y-64.198
X119.111Y-61.175
X119.298Y-88.006
X120.895Y-145.156
X121.064Y-143.503
X121.712Y-82.62
X121.879Y-77.583
X123.022Y-121.094
X123.022Y-121.729
X123.022Y-122.364
X123.022Y-122.999
X123.022Y-123.938
X123.022Y-124.573
X123.022Y-125.208
X123.022Y-125.843
X123.149Y-78.498
X123.454Y-95.998
X123.454Y-98.183
X123.632Y-121.094
X123.632Y-121.729
X123.632Y-122.364
X123.632Y-122.999
X123.632Y-123.938
X123.632Y-124.573
X123.632Y-125.208
X123.632Y-125.843
X124.292Y-121.094
X124.292Y-121.729
X124.292Y-122.364
X124.292Y-122.999
X124.292Y-123.938
X124.292Y-124.573
X124.292Y-125.208
X124.292Y-125.843
X124.745Y-100.956
X124.902Y-121.094
X124.902Y-121.729
X124.902Y-122.364
X124.902Y-122.999
X124.902Y-123.938
X124.902Y-124.573
X124.902Y-125.208
X124.902Y-125.843
X125.486Y-81.724
X126.248Y-96.106
X126.864Y-107.784
X126.864Y-117.944
X126.864Y-139.026
X127.348Y-70.773
X127.747Y-59.27
X127.823Y-78.828
X127.823Y-80.86
X127.998Y-141.931
X128.382Y-59.27
X128.382Y-59.905
X129.017Y-59.27
X129.017Y-59.905
X129.017Y-60.54
X129.092Y-93.852
X129.173Y-70.773
X129.381Y-90.726
X129.398Y-68.033
X129.652Y-59.27
X129.652Y-59.905
X129.652Y-60.54
X129.753Y-97.014
X129.855Y-79.844
X129.918Y-94.83
X130.287Y-59.27
X130.287Y-59.905
X130.287Y-60.54
X130.287Y-61.175
X130.335Y-74.561
X130.82Y-68.973
X130.82Y-69.582
X130.82Y-70.192
X130.82Y-70.802
X130.82Y-71.411
X130.82Y-72.021
X130.82Y-72.63
X130.922Y-59.27
X130.922Y-59.905
X130.922Y-60.54
X130.922Y-61.175
X130.922Y-61.81
X130.922Y-62.445
X130.922Y-63.08
X130.922Y-63.715
X130.922Y-64.35
X130.922Y-64.985
X130.922Y-65.62
X130.922Y-66.255
X131.048Y-143.406
X131.557Y-59.27
X131.557Y-59.905
X131.557Y-60.54
X131.557Y-61.175
X131.557Y-61.81
X131.557Y-62.445
X131.557Y-63.08
X131.557Y-63.715
X131.557Y-64.35
X131.557Y-64.985
X131.557Y-65.62
X131.557Y-66.255
X131.684Y-86.194
X131.684Y-93.052
X131.785Y-74.053
X131.938Y-84.797
X131.938Y-88.988
X132.192Y-59.27
X132.192Y-59.905
X132.192Y-60.54
X132.192Y-61.175
X132.192Y-61.81
X132.192Y-62.445
X132.192Y-63.08
X132.192Y-63.715
X132.192Y-64.35
X132.192Y-64.985
X132.192Y-65.62
X132.192Y-66.255
X132.827Y-59.27
X132.827Y-59.905
X132.827Y-60.54
X132.827Y-61.175
X132.827Y-61.81
X132.827Y-62.445
X132.827Y-63.08
X132.827Y-63.715
X132.827Y-64.35
X132.827Y-64.985
X132.827Y-65.62
X132.827Y-66.255
X132.954Y-90.258
X133.005Y-92.188
X133.122Y-77.77
X133.462Y-59.27
X133.462Y-59.905
X133.462Y-60.54
X133.462Y-61.175
X133.462Y-61.81
X133.462Y-62.445
X133.462Y-63.08
X133.462Y-63.715
X133.462Y-64.35
X133.462Y-64.985
X133.462Y-65.62
X133.462Y-66.255
X133.648Y-147.156
X133.894Y-129.679
X133.894Y-130.339
X134.173Y-93.255
X134.224Y-89.496
X134.529Y-129.679
X134.529Y-130.339
X134.681Y-81.927
X134.692Y-78.93
X134.986Y-86.702
X135.037Y-69.176
X135.164Y-129.679
X135.164Y-130.339
X135.494Y-92.188
X135.501Y-75.7
X135.598Y-145.956
X135.824Y-129.653
X135.849Y-120.763
X135.849Y-121.424
X135.852Y-130.326
X136.484Y-120.763
X136.484Y-121.424
X136.801Y-85.962
X137.119Y-120.763
X137.119Y-121.424
X137.156Y-97.476
X137.384Y-76.522
X137.398Y-74.637
X137.489Y-108.141
X137.78Y-120.738
X137.808Y-121.411
X138.034Y-83.908
X138.643Y-97.319
X139.202Y-92.544
X140.167Y-96.608
X140.472Y-93.56
X140.917Y-87.216
X141.641Y-88.366
X141.996Y-86.804
X142.352Y-108.141
X143.241Y-96.735
X143.977Y-73.088
X144.007Y-76.005
X144.028Y-100.113
X144.13Y-97.878
X144.282Y-99.046
X145.095Y-103.463
X145.146Y-74.154
X145.548Y-75.406
X145.908Y-98.005
X145.959Y-100.164
X146.042Y-83.3
X146.131Y-88.566
X146.289Y-87.21
X146.67Y-91.366
X146.771Y-131.736
X146.777Y-132.376
X146.797Y-133.032
X147.076Y-71.564
X147.267Y-98.259
X147.432Y-108.141
X147.482Y-91.366
X147.625Y-100.911
X147.812Y-88.31
X148.092Y-74.408
X148.099Y-84.438
X148.099Y-86.338
X148.638Y-91.603
X149.417Y-76.041
X149.942Y-87.2
X150.067Y-77.177
X150.084Y-90.28
X150.552Y-122.765
X150.556Y-119.036
X150.792Y-88.31
X150.798Y-75.006
X151.067Y-98.386
X151.848Y-89.106
X152.512Y-108.141
X152.589Y-120.91
X153.892Y-79.841
X154.468Y-92.493
X154.499Y-101.424
X155.299Y-101.424
X155.602Y-72.75
X155.956Y-97.151
X156.099Y-101.424
X156.144Y-86.116
X156.681Y-98.026
X156.735Y-91.55
X156.813Y-85.466
X156.897Y-101.362
X157.414Y-84.807
X157.751Y-79.998
X157.751Y-81.898
X158.067Y-84.212
X158.067Y-92.442
X158.379Y-89.877
X158.406Y-98.226
X158.591Y-83.562
X159.072Y-78.32
X159.116Y-144.309
X160.487Y-127.393
X160.564Y-121.83
X161.961Y-81.366
X162.424Y-100.418
X162.424Y-109.562
X163.593Y-82.105
X164.386Y-101.87
X164.805Y-81.52
X164.848Y-79.606
X165.796Y-95.313
X165.921Y-82.737
X167.244Y-113.626
X167.879Y-95.338
X167.955Y-84.797
X169.174Y-84.01
X169.396Y-109.79
X169.587Y-99.156
X169.682Y-83.095
X170.552Y-95.592
X170.698Y-139.483
X170.698Y-140.093
X170.698Y-140.702
X170.698Y-141.312
X170.698Y-141.922
X170.872Y-144.03
X170.872Y-144.639
X170.882Y-132.851
X170.882Y-133.461
X171.282Y-113.016
X171.331Y-102.551
X172.916Y-98.1
X173.183Y-144.055
X173.183Y-144.665
X173.247Y-132.826
X173.247Y-133.435
X173.34Y-139.483
X173.34Y-140.093
X173.34Y-140.702
X173.34Y-141.312
X173.34Y-141.922
X173.807Y-102.305
X173.944Y-113.042
X175.88Y-98.081
X176.286Y-84.441
X176.642Y-95.465
X177.217Y-97.706
X177.351Y-107.347
X177.453Y-113.671
X177.478Y-111.741
X177.664Y-99.91
X177.885Y-106.75
X178.267Y-81.012
X178.674Y-115.404
X179.286Y-112.38
X179.484Y-89.595
X179.741Y-113.626
X179.741Y-117.284
X180.35Y-127.825
X180.35Y-128.561
X180.35Y-129.323
X180.426Y-81.673
X181.239Y-80.403
X181.392Y-127.825
X181.392Y-128.561
X181.392Y-129.323
X181.695Y-115.424
X181.822Y-116.973
X182.23Y-63.207
X182.23Y-68.363
X182.23Y-90.512
X182.274Y-87.752
X182.646Y-109.18
X183.286Y-109.66
X183.627Y-96.735
X183.728Y-139.102
X183.728Y-142.379
X184.008Y-81.698
X184.109Y-64.401
X184.135Y-67.347
X184.211Y-133.692
X184.211Y-134.302
X184.211Y-134.911
X184.516Y-86.043
X184.821Y-133.692
X184.821Y-134.302
X184.821Y-134.911
X185.056Y-104.787
X185.22Y-102.947
X185.43Y-133.692
X185.43Y-134.302
X185.43Y-134.911
X185.532Y-87.313
X185.532Y-90.512
X185.532Y-96.735
X185.532Y-98.005
X186.276Y-111.4
X186.466Y-116.14
X186.616Y-120.384
X186.776Y-138.162
X186.776Y-138.899
X186.776Y-139.661
X186.776Y-140.398
X186.961Y-102.955
X187.562Y-125.635
X187.566Y-121.334
X187.818Y-138.162
X187.818Y-138.899
X187.818Y-139.661
X187.818Y-140.398
X188.25Y-73.392
X188.351Y-108.724
X188.351Y-109.613
X188.553Y-123.679
X189.088Y-131.406
X189.088Y-132.016
X189.088Y-132.625
X189.113Y-133.26
X189.113Y-133.87
X189.266Y-74.586
X189.697Y-131.406
X189.697Y-132.016
X189.697Y-132.625
X189.723Y-133.26
X189.723Y-133.87
X190.663Y-131.406
X190.663Y-132.016
X190.663Y-132.625
X190.663Y-133.26
X190.663Y-133.87
X190.942Y-75.069
X191.247Y-96.735
X191.272Y-131.406
X191.272Y-132.016
X191.272Y-132.625
X191.272Y-133.26
X191.272Y-133.87
X192.314Y-81.952
X193.716Y-69.511
X193.939Y-74.561
X195.056Y-74.701
X195.185Y-81.978
X195.289Y-80.723
X195.734Y-71.181
X196.02Y-79.33
X196.962Y-73.951
X197.308Y-74.992
X197.5Y-99.388
X197.526Y-107.389
X200.167Y-69.41
X200.167Y-71.31
X200.32Y-77.05
X200.32Y-78.875
X205.193Y-100.715
X205.193Y-105.823
X205.268Y-76.339
X207.987Y-100.677
X207.987Y-105.861
X208.341Y-77.025
X208.366Y-71.919
X209.763Y-75.856
X209.84Y-72.91
X211.445Y-113.18
X211.445Y-120.877
X212.835Y-101.327
X212.867Y-97.737
X213.807Y-133.627
X213.832Y-125.728
X213.883Y-135.939
X213.883Y-143.686
X213.934Y-97.763
X214.776Y-101.935
X216.369Y-98.645
X216.499Y-111.555
X216.55Y-109.65
X216.55Y-112.85
X217.693Y-108.634
X219.745Y-127.143
X219.792Y-137.433
X219.795Y-132.193
X219.795Y-142.173
X220.513Y-98.779
X221.503Y-96.188
X221.503Y-98.179
X221.57Y-127.143
X221.617Y-137.433
X221.62Y-132.193
X221.62Y-142.173
T2
X176.362Y-124.751
X176.362Y-125.767
X177.81Y-124.751
X177.81Y-125.767
T4
X91.457Y-60.054
X91.457Y-62.594
X93.997Y-60.054
X93.997Y-62.594
X96.537Y-60.054
X96.537Y-62.594
X99.077Y-60.054
X99.077Y-62.594
X101.617Y-60.054
X101.617Y-62.594
X104.157Y-60.054
X104.157Y-62.594
X106.697Y-60.054
X106.697Y-62.594
X109.237Y-60.054
X109.237Y-62.594
X111.445Y-140.166
X111.445Y-145.246
X111.777Y-60.054
X111.777Y-62.594
X114.317Y-60.054
X114.317Y-62.594
X143.933Y-59.597
X143.933Y-67.197
X171.948Y-64.566
X171.948Y-67.106
X171.948Y-69.646
X171.948Y-72.186
X171.948Y-74.726
X171.948Y-77.266
X171.948Y-79.806
X171.948Y-82.346
X225.095Y-96.618
X225.095Y-99.158
X225.095Y-101.698
X225.095Y-104.238
X225.095Y-109.318
X225.095Y-111.858
X225.095Y-114.398
X225.095Y-116.938
X225.095Y-119.478
X225.095Y-122.018
X225.095Y-128.368
X225.095Y-130.908
X225.095Y-138.528
X225.095Y-141.068
T5
X89.645Y-85.416
X89.645Y-87.956
X89.645Y-90.496
X89.77Y-122.656
X89.77Y-125.196
X89.77Y-127.736
T6
X171.948Y-58.456
X171.948Y-88.456
X224.948Y-58.456
X224.948Y-88.456
T7
X118.228Y-69.811
X139.945Y-103.847
X225.162Y-147.916
T8
X89.645Y-100.106
X89.645Y-107.306
X89.645Y-138.106
X89.645Y-145.306
X159.783Y-61.432
X159.783Y-68.632
T3
X89.131Y-69.702G85X88.531Y-69.702
G05
X89.131Y-78.342G85X88.531Y-78.342
G05
X93.561Y-69.702G85X92.461Y-69.702
G05
X93.561Y-78.342G85X92.461Y-78.342
G05
M30
