G04 #@! TF.GenerationSoftware,KiCad,Pcbnew,8.0.4*
G04 #@! TF.CreationDate,2024-09-09T14:24:52+09:00*
G04 #@! TF.ProjectId,Solid Rocket Motor Test Station,536f6c69-6420-4526-9f63-6b6574204d6f,1.0*
G04 #@! TF.SameCoordinates,Original*
G04 #@! TF.FileFunction,Paste,Bot*
G04 #@! TF.FilePolarity,Positive*
%FSLAX46Y46*%
G04 Gerber Fmt 4.6, Leading zero omitted, Abs format (unit mm)*
G04 Created by KiCad (PCBNEW 8.0.4) date 2024-09-09 14:24:52*
%MOMM*%
%LPD*%
G01*
G04 APERTURE LIST*
G04 Aperture macros list*
%AMRoundRect*
0 Rectangle with rounded corners*
0 $1 Rounding radius*
0 $2 $3 $4 $5 $6 $7 $8 $9 X,Y pos of 4 corners*
0 Add a 4 corners polygon primitive as box body*
4,1,4,$2,$3,$4,$5,$6,$7,$8,$9,$2,$3,0*
0 Add four circle primitives for the rounded corners*
1,1,$1+$1,$2,$3*
1,1,$1+$1,$4,$5*
1,1,$1+$1,$6,$7*
1,1,$1+$1,$8,$9*
0 Add four rect primitives between the rounded corners*
20,1,$1+$1,$2,$3,$4,$5,0*
20,1,$1+$1,$4,$5,$6,$7,0*
20,1,$1+$1,$6,$7,$8,$9,0*
20,1,$1+$1,$8,$9,$2,$3,0*%
G04 Aperture macros list end*
%ADD10RoundRect,0.250000X0.475000X-0.250000X0.475000X0.250000X-0.475000X0.250000X-0.475000X-0.250000X0*%
%ADD11RoundRect,0.250000X0.250000X0.475000X-0.250000X0.475000X-0.250000X-0.475000X0.250000X-0.475000X0*%
%ADD12C,0.250000*%
%ADD13RoundRect,0.250000X0.262500X0.450000X-0.262500X0.450000X-0.262500X-0.450000X0.262500X-0.450000X0*%
%ADD14RoundRect,0.250000X-0.475000X0.250000X-0.475000X-0.250000X0.475000X-0.250000X0.475000X0.250000X0*%
%ADD15RoundRect,0.218750X-0.381250X0.218750X-0.381250X-0.218750X0.381250X-0.218750X0.381250X0.218750X0*%
%ADD16RoundRect,0.250000X-0.450000X0.262500X-0.450000X-0.262500X0.450000X-0.262500X0.450000X0.262500X0*%
%ADD17RoundRect,0.218750X-0.218750X-0.381250X0.218750X-0.381250X0.218750X0.381250X-0.218750X0.381250X0*%
%ADD18RoundRect,0.250000X0.325000X1.100000X-0.325000X1.100000X-0.325000X-1.100000X0.325000X-1.100000X0*%
%ADD19RoundRect,0.250000X0.450000X-0.262500X0.450000X0.262500X-0.450000X0.262500X-0.450000X-0.262500X0*%
%ADD20R,0.254000X0.675000*%
%ADD21R,0.675000X0.254000*%
%ADD22RoundRect,0.250000X-0.650000X0.325000X-0.650000X-0.325000X0.650000X-0.325000X0.650000X0.325000X0*%
%ADD23R,3.000000X2.000000*%
%ADD24RoundRect,0.300000X-0.350000X-0.300000X0.350000X-0.300000X0.350000X0.300000X-0.350000X0.300000X0*%
%ADD25RoundRect,0.250000X-0.262500X-0.450000X0.262500X-0.450000X0.262500X0.450000X-0.262500X0.450000X0*%
%ADD26RoundRect,0.150000X0.825000X0.150000X-0.825000X0.150000X-0.825000X-0.150000X0.825000X-0.150000X0*%
%ADD27RoundRect,0.218750X0.381250X-0.218750X0.381250X0.218750X-0.381250X0.218750X-0.381250X-0.218750X0*%
%ADD28R,5.400000X2.900000*%
%ADD29R,2.900000X5.400000*%
%ADD30RoundRect,0.250000X-0.250000X-0.475000X0.250000X-0.475000X0.250000X0.475000X-0.250000X0.475000X0*%
G04 APERTURE END LIST*
D10*
X105145000Y-90156000D03*
X105145000Y-88256000D03*
D11*
X186956000Y-103700000D03*
X185056000Y-103700000D03*
D12*
X127981800Y-62010000D03*
X128381800Y-62010000D03*
X128781800Y-62010000D03*
X127981800Y-61610000D03*
X128381800Y-61610000D03*
X128781800Y-61610000D03*
D13*
X129310700Y-75700400D03*
X127485700Y-75700400D03*
D14*
X217695000Y-109648000D03*
X217695000Y-111548000D03*
X212878000Y-98772000D03*
X212878000Y-100672000D03*
D15*
X202961200Y-73240000D03*
X202961200Y-75365000D03*
D10*
X137398200Y-76536800D03*
X137398200Y-74636800D03*
D11*
X182776000Y-110600000D03*
X180876000Y-110600000D03*
D16*
X131047800Y-144381000D03*
X131047800Y-146206000D03*
D17*
X92981000Y-80120000D03*
X95106000Y-80120000D03*
D18*
X182696000Y-115420000D03*
X179746000Y-115420000D03*
D16*
X149417000Y-74216000D03*
X149417000Y-76041000D03*
D14*
X221514000Y-96862000D03*
X221514000Y-98762000D03*
D19*
X182273800Y-89577500D03*
X182273800Y-87752500D03*
D10*
X148099000Y-86338000D03*
X148099000Y-84438000D03*
D13*
X91250000Y-72752000D03*
X89425000Y-72752000D03*
X91250000Y-75800000D03*
X89425000Y-75800000D03*
D14*
X219815000Y-109648000D03*
X219815000Y-111548000D03*
D13*
X207375500Y-105757000D03*
X205550500Y-105757000D03*
D17*
X138792000Y-89216000D03*
X140917000Y-89216000D03*
X138792000Y-85216000D03*
X140917000Y-85216000D03*
D10*
X105145000Y-127856000D03*
X105145000Y-125956000D03*
D17*
X120126800Y-59270000D03*
X122251800Y-59270000D03*
D14*
X148099000Y-80882000D03*
X148099000Y-82782000D03*
D20*
X197841200Y-73079800D03*
D21*
X197978700Y-73992300D03*
X197978700Y-74492300D03*
X197978700Y-74992300D03*
X197978700Y-75492300D03*
D20*
X197841200Y-76404800D03*
X197341200Y-76404800D03*
X196841200Y-76404800D03*
X196341200Y-76404800D03*
X195841200Y-76404800D03*
X195341200Y-76404800D03*
X194841200Y-76404800D03*
X194341200Y-76404800D03*
X193841200Y-76404800D03*
X193341200Y-76404800D03*
D21*
X193203700Y-75492300D03*
X193203700Y-74992300D03*
X193203700Y-74492300D03*
X193203700Y-73992300D03*
D20*
X193341200Y-73079800D03*
X193841200Y-73079800D03*
X194341200Y-73079800D03*
X194841200Y-73079800D03*
X195341200Y-73079800D03*
X195841200Y-73079800D03*
X196341200Y-73079800D03*
X196841200Y-73079800D03*
X197341200Y-73079800D03*
D10*
X205298000Y-75221200D03*
X205298000Y-73321200D03*
D11*
X182766000Y-112710000D03*
X180866000Y-112710000D03*
D22*
X208346000Y-72931600D03*
X208346000Y-75881600D03*
D23*
X150552200Y-130876400D03*
X150552200Y-120876400D03*
D18*
X187435000Y-108667400D03*
X184485000Y-108667400D03*
D14*
X112285000Y-78123800D03*
X112285000Y-80023800D03*
D11*
X186956000Y-105830000D03*
X185056000Y-105830000D03*
X158635000Y-91550000D03*
X156735000Y-91550000D03*
D24*
X195733600Y-69480800D03*
X198033600Y-69480800D03*
X198033600Y-71180800D03*
X195733600Y-71180800D03*
D25*
X127348000Y-70772800D03*
X129173000Y-70772800D03*
D14*
X125587800Y-59270000D03*
X125587800Y-61170000D03*
D26*
X123370002Y-142301000D03*
X123370002Y-143571000D03*
X123370002Y-144841000D03*
X123370002Y-146111000D03*
X118420002Y-146111000D03*
X118420002Y-144841000D03*
X118420002Y-143571000D03*
X118420002Y-142301000D03*
D16*
X127997800Y-143006000D03*
X127997800Y-144831000D03*
D13*
X221620000Y-142173000D03*
X219795000Y-142173000D03*
D27*
X96791000Y-79866000D03*
X96791000Y-77741000D03*
D19*
X112285000Y-76364300D03*
X112285000Y-74539300D03*
D13*
X207375500Y-100677000D03*
X205550500Y-100677000D03*
X221617500Y-137433000D03*
X219792500Y-137433000D03*
D17*
X147811800Y-88310000D03*
X149936800Y-88310000D03*
X138792000Y-91216000D03*
X140917000Y-91216000D03*
X138792000Y-87216000D03*
X140917000Y-87216000D03*
D10*
X200319600Y-75221200D03*
X200319600Y-73321200D03*
D14*
X214910000Y-98772000D03*
X214910000Y-100672000D03*
X157751000Y-79998000D03*
X157751000Y-81898000D03*
X221915000Y-109648000D03*
X221915000Y-111548000D03*
D28*
X136052200Y-120426400D03*
X136052200Y-130326400D03*
D13*
X221570000Y-127143000D03*
X219745000Y-127143000D03*
D29*
X114080400Y-123462200D03*
X123980400Y-123462200D03*
D19*
X185531800Y-89138500D03*
X185531800Y-87313500D03*
D10*
X117840800Y-61170000D03*
X117840800Y-59270000D03*
D30*
X195288600Y-79355800D03*
X197188600Y-79355800D03*
D13*
X151909000Y-90280000D03*
X150084000Y-90280000D03*
X221620000Y-132193000D03*
X219795000Y-132193000D03*
M02*
