G04 #@! TF.GenerationSoftware,KiCad,Pcbnew,8.0.4*
G04 #@! TF.CreationDate,2024-09-09T14:24:52+09:00*
G04 #@! TF.ProjectId,Solid Rocket Motor Test Station,536f6c69-6420-4526-9f63-6b6574204d6f,1.0*
G04 #@! TF.SameCoordinates,Original*
G04 #@! TF.FileFunction,Profile,NP*
%FSLAX46Y46*%
G04 Gerber Fmt 4.6, Leading zero omitted, Abs format (unit mm)*
G04 Created by KiCad (PCBNEW 8.0.4) date 2024-09-09 14:24:52*
%MOMM*%
%LPD*%
G01*
G04 APERTURE LIST*
G04 #@! TA.AperFunction,Profile*
%ADD10C,0.050000*%
G04 #@! TD*
G04 APERTURE END LIST*
D10*
X177607000Y-93052000D02*
X187767000Y-93052000D01*
X187767000Y-94068000D01*
X177607000Y-94068000D01*
X177607000Y-93052000D01*
X171759800Y-130644000D02*
X172267800Y-130644000D01*
X172267800Y-147408000D01*
X171759800Y-147408000D01*
X171759800Y-130644000D01*
X191831000Y-93052000D02*
X201991000Y-93052000D01*
X201991000Y-94068000D01*
X191831000Y-94068000D01*
X191831000Y-93052000D01*
X220279000Y-93052000D02*
X224343000Y-93052000D01*
X224343000Y-94068000D01*
X220279000Y-94068000D01*
X220279000Y-93052000D01*
X171511000Y-124548000D02*
X172527000Y-124548000D01*
X172527000Y-126580000D01*
X171511000Y-126580000D01*
X171511000Y-124548000D01*
X175321000Y-105498000D02*
X176337000Y-105498000D01*
X176337000Y-113626000D01*
X175321000Y-113626000D01*
X175321000Y-105498000D01*
X84947800Y-55956000D02*
X227447800Y-55956000D01*
X227447800Y-150456000D01*
X84947800Y-150456000D01*
X84947800Y-55956000D01*
X206055000Y-93052000D02*
X216215000Y-93052000D01*
X216215000Y-94068000D01*
X206055000Y-94068000D01*
X206055000Y-93052000D01*
X160081000Y-94576000D02*
X161097000Y-94576000D01*
X161097000Y-103720000D01*
X160081000Y-103720000D01*
X160081000Y-94576000D01*
X171511000Y-117436000D02*
X172527000Y-117436000D01*
X172527000Y-120484000D01*
X171511000Y-120484000D01*
X171511000Y-117436000D01*
X162621000Y-105244000D02*
X173797000Y-105244000D01*
X173797000Y-106260000D01*
X162621000Y-106260000D01*
X162621000Y-105244000D01*
X162875000Y-93052000D02*
X173543000Y-93052000D01*
X173543000Y-94068000D01*
X162875000Y-94068000D01*
X162875000Y-93052000D01*
M02*
