G04 #@! TF.GenerationSoftware,KiCad,Pcbnew,8.0.4*
G04 #@! TF.CreationDate,2024-09-09T14:24:52+09:00*
G04 #@! TF.ProjectId,Solid Rocket Motor Test Station,536f6c69-6420-4526-9f63-6b6574204d6f,1.0*
G04 #@! TF.SameCoordinates,Original*
G04 #@! TF.FileFunction,Soldermask,Top*
G04 #@! TF.FilePolarity,Negative*
%FSLAX46Y46*%
G04 Gerber Fmt 4.6, Leading zero omitted, Abs format (unit mm)*
G04 Created by KiCad (PCBNEW 8.0.4) date 2024-09-09 14:24:52*
%MOMM*%
%LPD*%
G01*
G04 APERTURE LIST*
G04 Aperture macros list*
%AMRoundRect*
0 Rectangle with rounded corners*
0 $1 Rounding radius*
0 $2 $3 $4 $5 $6 $7 $8 $9 X,Y pos of 4 corners*
0 Add a 4 corners polygon primitive as box body*
4,1,4,$2,$3,$4,$5,$6,$7,$8,$9,$2,$3,0*
0 Add four circle primitives for the rounded corners*
1,1,$1+$1,$2,$3*
1,1,$1+$1,$4,$5*
1,1,$1+$1,$6,$7*
1,1,$1+$1,$8,$9*
0 Add four rect primitives between the rounded corners*
20,1,$1+$1,$2,$3,$4,$5,0*
20,1,$1+$1,$4,$5,$6,$7,0*
20,1,$1+$1,$6,$7,$8,$9,0*
20,1,$1+$1,$8,$9,$2,$3,0*%
G04 Aperture macros list end*
%ADD10RoundRect,0.250000X0.250000X0.475000X-0.250000X0.475000X-0.250000X-0.475000X0.250000X-0.475000X0*%
%ADD11RoundRect,0.250000X-0.475000X0.250000X-0.475000X-0.250000X0.475000X-0.250000X0.475000X0.250000X0*%
%ADD12RoundRect,0.250000X-0.450000X0.262500X-0.450000X-0.262500X0.450000X-0.262500X0.450000X0.262500X0*%
%ADD13RoundRect,0.250000X0.262500X0.450000X-0.262500X0.450000X-0.262500X-0.450000X0.262500X-0.450000X0*%
%ADD14RoundRect,0.250000X1.100000X-0.325000X1.100000X0.325000X-1.100000X0.325000X-1.100000X-0.325000X0*%
%ADD15RoundRect,0.150000X-0.825000X-0.150000X0.825000X-0.150000X0.825000X0.150000X-0.825000X0.150000X0*%
%ADD16RoundRect,0.250000X0.450000X-0.262500X0.450000X0.262500X-0.450000X0.262500X-0.450000X-0.262500X0*%
%ADD17R,1.700000X1.700000*%
%ADD18O,1.700000X1.700000*%
%ADD19RoundRect,0.250000X0.475000X-0.250000X0.475000X0.250000X-0.475000X0.250000X-0.475000X-0.250000X0*%
%ADD20RoundRect,1.500000X-1.500000X1.500000X-1.500000X-1.500000X1.500000X-1.500000X1.500000X1.500000X0*%
%ADD21C,6.000000*%
%ADD22RoundRect,0.218750X-0.218750X-0.381250X0.218750X-0.381250X0.218750X0.381250X-0.218750X0.381250X0*%
%ADD23RoundRect,0.243750X0.456250X-0.243750X0.456250X0.243750X-0.456250X0.243750X-0.456250X-0.243750X0*%
%ADD24RoundRect,0.250000X0.325000X1.100000X-0.325000X1.100000X-0.325000X-1.100000X0.325000X-1.100000X0*%
%ADD25RoundRect,0.100000X-0.625000X-0.100000X0.625000X-0.100000X0.625000X0.100000X-0.625000X0.100000X0*%
%ADD26R,1.650000X2.850000*%
%ADD27R,3.000000X1.524000*%
%ADD28RoundRect,0.150000X-0.512500X-0.150000X0.512500X-0.150000X0.512500X0.150000X-0.512500X0.150000X0*%
%ADD29RoundRect,0.150000X0.825000X0.150000X-0.825000X0.150000X-0.825000X-0.150000X0.825000X-0.150000X0*%
%ADD30RoundRect,0.150000X-0.150000X0.875000X-0.150000X-0.875000X0.150000X-0.875000X0.150000X0.875000X0*%
%ADD31RoundRect,0.243750X0.243750X0.456250X-0.243750X0.456250X-0.243750X-0.456250X0.243750X-0.456250X0*%
%ADD32RoundRect,0.250000X-0.250000X-0.475000X0.250000X-0.475000X0.250000X0.475000X-0.250000X0.475000X0*%
%ADD33C,0.650000*%
%ADD34R,1.450000X0.600000*%
%ADD35R,1.450000X0.300000*%
%ADD36O,2.100000X1.000000*%
%ADD37O,1.600000X1.000000*%
%ADD38RoundRect,0.100000X0.300000X0.100000X-0.300000X0.100000X-0.300000X-0.100000X0.300000X-0.100000X0*%
%ADD39RoundRect,0.250000X-0.262500X-0.450000X0.262500X-0.450000X0.262500X0.450000X-0.262500X0.450000X0*%
%ADD40R,2.030000X1.730000*%
%ADD41O,2.030000X1.730000*%
%ADD42RoundRect,0.243750X-0.243750X-0.456250X0.243750X-0.456250X0.243750X0.456250X-0.243750X0.456250X0*%
%ADD43RoundRect,0.100000X-0.100000X0.637500X-0.100000X-0.637500X0.100000X-0.637500X0.100000X0.637500X0*%
%ADD44RoundRect,0.218750X-0.381250X0.218750X-0.381250X-0.218750X0.381250X-0.218750X0.381250X0.218750X0*%
%ADD45R,2.000000X2.000000*%
%ADD46C,2.000000*%
%ADD47RoundRect,0.175000X-0.175000X0.225000X-0.175000X-0.225000X0.175000X-0.225000X0.175000X0.225000X0*%
%ADD48RoundRect,0.175000X0.175000X0.575000X-0.175000X0.575000X-0.175000X-0.575000X0.175000X-0.575000X0*%
%ADD49RoundRect,0.175000X0.575000X0.175000X-0.575000X0.175000X-0.575000X-0.175000X0.575000X-0.175000X0*%
%ADD50RoundRect,0.175000X0.175000X-0.575000X0.175000X0.575000X-0.175000X0.575000X-0.175000X-0.575000X0*%
%ADD51RoundRect,0.175000X1.075000X0.175000X-1.075000X0.175000X-1.075000X-0.175000X1.075000X-0.175000X0*%
%ADD52RoundRect,0.250000X0.300000X-2.050000X0.300000X2.050000X-0.300000X2.050000X-0.300000X-2.050000X0*%
%ADD53RoundRect,0.250002X5.149998X-4.449998X5.149998X4.449998X-5.149998X4.449998X-5.149998X-4.449998X0*%
%ADD54R,0.650000X0.350000*%
%ADD55R,1.550000X2.400000*%
%ADD56RoundRect,0.250000X-0.325000X-1.100000X0.325000X-1.100000X0.325000X1.100000X-0.325000X1.100000X0*%
%ADD57RoundRect,0.075000X-0.725000X-0.075000X0.725000X-0.075000X0.725000X0.075000X-0.725000X0.075000X0*%
%ADD58RoundRect,0.075000X-0.075000X-0.725000X0.075000X-0.725000X0.075000X0.725000X-0.075000X0.725000X0*%
%ADD59RoundRect,0.250000X-1.100000X0.325000X-1.100000X-0.325000X1.100000X-0.325000X1.100000X0.325000X0*%
%ADD60R,1.750000X0.450000*%
%ADD61RoundRect,1.500000X1.500000X-1.500000X1.500000X1.500000X-1.500000X1.500000X-1.500000X-1.500000X0*%
%ADD62R,3.500000X2.500000*%
%ADD63RoundRect,0.250000X-2.050000X-0.300000X2.050000X-0.300000X2.050000X0.300000X-2.050000X0.300000X0*%
%ADD64RoundRect,0.250002X-4.449998X-5.149998X4.449998X-5.149998X4.449998X5.149998X-4.449998X5.149998X0*%
%ADD65RoundRect,0.162500X0.262500X-0.162500X0.262500X0.162500X-0.262500X0.162500X-0.262500X-0.162500X0*%
%ADD66C,3.200000*%
%ADD67R,1.800000X1.800000*%
%ADD68C,1.800000*%
%ADD69RoundRect,0.218750X0.218750X0.381250X-0.218750X0.381250X-0.218750X-0.381250X0.218750X-0.381250X0*%
%ADD70RoundRect,0.250000X0.600000X-0.600000X0.600000X0.600000X-0.600000X0.600000X-0.600000X-0.600000X0*%
%ADD71C,1.700000*%
%ADD72R,3.000000X2.000000*%
G04 APERTURE END LIST*
D10*
X146034800Y-96735000D03*
X144134800Y-96735000D03*
D11*
X205193000Y-105823000D03*
X205193000Y-107723000D03*
X175545000Y-138531000D03*
X175545000Y-140431000D03*
D12*
X147431800Y-108141500D03*
X147431800Y-109966500D03*
D13*
X111170000Y-132416000D03*
X109345000Y-132416000D03*
D14*
X127823000Y-82892000D03*
X127823000Y-79942000D03*
D12*
X98345000Y-123591000D03*
X98345000Y-125416000D03*
D15*
X102645000Y-124896000D03*
X102645000Y-126166000D03*
X102645000Y-127436000D03*
X102645000Y-128706000D03*
X107595000Y-128706000D03*
X107595000Y-127436000D03*
X107595000Y-126166000D03*
X107595000Y-124896000D03*
D12*
X144006600Y-74180200D03*
X144006600Y-76005200D03*
D16*
X219895000Y-121043000D03*
X219895000Y-119218000D03*
D17*
X225095000Y-138528000D03*
D18*
X225095000Y-141068000D03*
D11*
X194445400Y-102373200D03*
X194445400Y-104273200D03*
D19*
X211445000Y-115988000D03*
X211445000Y-114088000D03*
D20*
X89645000Y-100106000D03*
D21*
X89645000Y-107306000D03*
D22*
X170955700Y-139810000D03*
X173080700Y-139810000D03*
D23*
X147431800Y-113880000D03*
X147431800Y-112005000D03*
D24*
X146777200Y-132376400D03*
X143827200Y-132376400D03*
D11*
X163813000Y-79564000D03*
X163813000Y-81464000D03*
D12*
X98345000Y-127416000D03*
X98345000Y-129241000D03*
D13*
X191166800Y-95465000D03*
X189341800Y-95465000D03*
D11*
X121645000Y-99056000D03*
X121645000Y-100956000D03*
X193715600Y-69511200D03*
X193715600Y-71411200D03*
X182045000Y-138531000D03*
X182045000Y-140431000D03*
D25*
X185145000Y-137656000D03*
X185145000Y-138306000D03*
X185145000Y-138956000D03*
X185145000Y-139606000D03*
X185145000Y-140256000D03*
X185145000Y-140906000D03*
X189445000Y-140906000D03*
X189445000Y-140256000D03*
X189445000Y-139606000D03*
X189445000Y-138956000D03*
X189445000Y-138306000D03*
X189445000Y-137656000D03*
D26*
X187295000Y-139281000D03*
D11*
X222065000Y-112828000D03*
X222065000Y-114728000D03*
D12*
X98870000Y-87536000D03*
X98870000Y-89361000D03*
D11*
X219595000Y-131993000D03*
X219595000Y-133893000D03*
D27*
X126245000Y-102456000D03*
X134045000Y-102456000D03*
X126245000Y-97456000D03*
X134045000Y-97456000D03*
D12*
X207987000Y-98852000D03*
X207987000Y-100677000D03*
D11*
X219670000Y-141978000D03*
X219670000Y-143878000D03*
D28*
X101742700Y-73128200D03*
X101742700Y-74078200D03*
X101742700Y-75028200D03*
X104017700Y-75028200D03*
X104017700Y-74078200D03*
X104017700Y-73128200D03*
D12*
X152511800Y-108141500D03*
X152511800Y-109966500D03*
D19*
X121893000Y-80397800D03*
X121893000Y-78497800D03*
X192424600Y-140773000D03*
X192424600Y-138873000D03*
D29*
X140450600Y-76970400D03*
X140450600Y-75700400D03*
X140450600Y-74430400D03*
X140450600Y-73160400D03*
X135500600Y-73160400D03*
X135500600Y-74430400D03*
X135500600Y-75700400D03*
X135500600Y-76970400D03*
D19*
X128645000Y-145206000D03*
X128645000Y-143306000D03*
D30*
X174476000Y-100490000D03*
X173206000Y-100490000D03*
X171936000Y-100490000D03*
X170666000Y-100490000D03*
X169396000Y-100490000D03*
X168126000Y-100490000D03*
X166856000Y-100490000D03*
X165586000Y-100490000D03*
X164316000Y-100490000D03*
X163046000Y-100490000D03*
X163046000Y-109790000D03*
X164316000Y-109790000D03*
X165586000Y-109790000D03*
X166856000Y-109790000D03*
X168126000Y-109790000D03*
X169396000Y-109790000D03*
X170666000Y-109790000D03*
X171936000Y-109790000D03*
X173206000Y-109790000D03*
X174476000Y-109790000D03*
D23*
X137489300Y-113880000D03*
X137489300Y-112005000D03*
D19*
X177462500Y-129547000D03*
X177462500Y-127647000D03*
D31*
X99585000Y-82914000D03*
X97710000Y-82914000D03*
D11*
X106918800Y-76140600D03*
X106918800Y-78040600D03*
D13*
X113395000Y-148956000D03*
X111570000Y-148956000D03*
D11*
X177478200Y-110953400D03*
X177478200Y-112853400D03*
D16*
X217745000Y-114678000D03*
X217745000Y-112853000D03*
D32*
X148573000Y-131876400D03*
X150473000Y-131876400D03*
D11*
X140479000Y-90666000D03*
X140479000Y-92566000D03*
D33*
X92481000Y-71132000D03*
X92481000Y-76912000D03*
D34*
X93926000Y-70772000D03*
X93926000Y-71572000D03*
D35*
X93926000Y-72772000D03*
X93926000Y-73772000D03*
X93926000Y-74272000D03*
X93926000Y-75272000D03*
D34*
X93926000Y-76472000D03*
X93926000Y-77272000D03*
X93926000Y-77272000D03*
X93926000Y-76472000D03*
D35*
X93926000Y-75772000D03*
X93926000Y-74772000D03*
X93926000Y-73272000D03*
X93926000Y-72272000D03*
D34*
X93926000Y-71572000D03*
X93926000Y-70772000D03*
D36*
X93011000Y-69702000D03*
D37*
X88831000Y-69702000D03*
D36*
X93011000Y-78342000D03*
D37*
X88831000Y-78342000D03*
D12*
X98870000Y-91111000D03*
X98870000Y-92936000D03*
D10*
X186276000Y-110370000D03*
X184376000Y-110370000D03*
D32*
X187721200Y-135800200D03*
X189621200Y-135800200D03*
D19*
X219595000Y-127368000D03*
X219595000Y-125468000D03*
D38*
X207747000Y-103979000D03*
X207747000Y-102679000D03*
X205447000Y-102679000D03*
X205447000Y-103979000D03*
D39*
X97395700Y-72909800D03*
X99220700Y-72909800D03*
D17*
X225095000Y-128368000D03*
D18*
X225095000Y-130908000D03*
D39*
X215757500Y-130843000D03*
X217582500Y-130843000D03*
D40*
X89770000Y-122656000D03*
D41*
X89770000Y-125196000D03*
X89770000Y-127736000D03*
D13*
X104894000Y-82660000D03*
X103069000Y-82660000D03*
X148161800Y-136744200D03*
X146336800Y-136744200D03*
D19*
X120895002Y-145156000D03*
X120895002Y-143256000D03*
D32*
X172916000Y-98100000D03*
X174816000Y-98100000D03*
D42*
X141746800Y-136740000D03*
X143621800Y-136740000D03*
D39*
X134684800Y-80479000D03*
X136509800Y-80479000D03*
D12*
X194599600Y-138910500D03*
X194599600Y-140735500D03*
D39*
X215820000Y-138693000D03*
X217645000Y-138693000D03*
D12*
X168866000Y-95957500D03*
X168866000Y-97782500D03*
D16*
X200319600Y-78875000D03*
X200319600Y-77050000D03*
D11*
X211420000Y-128743000D03*
X211420000Y-130643000D03*
D10*
X197596800Y-70496800D03*
X195696800Y-70496800D03*
D39*
X213520000Y-115988000D03*
X215345000Y-115988000D03*
D23*
X142351800Y-113880000D03*
X142351800Y-112005000D03*
D12*
X219935000Y-112858000D03*
X219935000Y-114683000D03*
D43*
X189571000Y-101717500D03*
X188921000Y-101717500D03*
X188271000Y-101717500D03*
X187621000Y-101717500D03*
X186971000Y-101717500D03*
X186321000Y-101717500D03*
X185671000Y-101717500D03*
X185021000Y-101717500D03*
X184371000Y-101717500D03*
X183721000Y-101717500D03*
X183071000Y-101717500D03*
X182421000Y-101717500D03*
X181771000Y-101717500D03*
X181121000Y-101717500D03*
X181121000Y-107442500D03*
X181771000Y-107442500D03*
X182421000Y-107442500D03*
X183071000Y-107442500D03*
X183721000Y-107442500D03*
X184371000Y-107442500D03*
X185021000Y-107442500D03*
X185671000Y-107442500D03*
X186321000Y-107442500D03*
X186971000Y-107442500D03*
X187621000Y-107442500D03*
X188271000Y-107442500D03*
X188921000Y-107442500D03*
X189571000Y-107442500D03*
D38*
X222070000Y-130318000D03*
X222070000Y-129018000D03*
X219770000Y-129018000D03*
X219770000Y-130318000D03*
D19*
X119353000Y-80397800D03*
X119353000Y-78497800D03*
D44*
X124179000Y-80483300D03*
X124179000Y-82608300D03*
D32*
X172044400Y-113041800D03*
X173944400Y-113041800D03*
D45*
X143933400Y-67196800D03*
D46*
X143933400Y-59596800D03*
D19*
X222085000Y-121098000D03*
X222085000Y-119198000D03*
D16*
X207987000Y-107685500D03*
X207987000Y-105860500D03*
D32*
X146503800Y-75395600D03*
X148403800Y-75395600D03*
D19*
X213885000Y-138893000D03*
X213885000Y-136993000D03*
D47*
X141257000Y-84438000D03*
X141257000Y-85738000D03*
X142257000Y-85738000D03*
X142257000Y-84438000D03*
D48*
X184076000Y-117320000D03*
X185346000Y-117320000D03*
X186616000Y-117320000D03*
D49*
X187496000Y-115170000D03*
D50*
X186616000Y-113020000D03*
X185346000Y-113020000D03*
X184076000Y-113020000D03*
D51*
X183596000Y-115170000D03*
D10*
X172975000Y-133156000D03*
X171075000Y-133156000D03*
D52*
X125718600Y-70880400D03*
D53*
X128258600Y-61730400D03*
D52*
X130798600Y-70880400D03*
D10*
X182532800Y-134499200D03*
X180632800Y-134499200D03*
D19*
X197499500Y-102339000D03*
X197499500Y-100439000D03*
D42*
X185531800Y-95465000D03*
X187406800Y-95465000D03*
D10*
X158580800Y-97138000D03*
X156680800Y-97138000D03*
D12*
X188833800Y-84472500D03*
X188833800Y-86297500D03*
D19*
X200167200Y-71309600D03*
X200167200Y-69409600D03*
D13*
X106620000Y-94861000D03*
X104795000Y-94861000D03*
D19*
X213885000Y-142613000D03*
X213885000Y-140713000D03*
D38*
X219905000Y-117618000D03*
X219905000Y-116318000D03*
X217605000Y-116318000D03*
X217605000Y-117618000D03*
D54*
X179335000Y-127596000D03*
X179335000Y-128246000D03*
X179335000Y-128896000D03*
X179335000Y-129546000D03*
X182435000Y-129546000D03*
X182435000Y-128896000D03*
X182435000Y-128246000D03*
X182435000Y-127596000D03*
D55*
X180885000Y-128571000D03*
D29*
X216369000Y-102455000D03*
X216369000Y-101185000D03*
X216369000Y-99915000D03*
X216369000Y-98645000D03*
X211419000Y-98645000D03*
X211419000Y-99915000D03*
X211419000Y-101185000D03*
X211419000Y-102455000D03*
D16*
X221770000Y-143818000D03*
X221770000Y-141993000D03*
D39*
X200213000Y-104373000D03*
X202038000Y-104373000D03*
D56*
X184615600Y-123678800D03*
X187565600Y-123678800D03*
D57*
X144742000Y-80216000D03*
X144742000Y-80716000D03*
X144742000Y-81216000D03*
X144742000Y-81716000D03*
X144742000Y-82216000D03*
X144742000Y-82716000D03*
X144742000Y-83216000D03*
X144742000Y-83716000D03*
X144742000Y-84216000D03*
X144742000Y-84716000D03*
X144742000Y-85216000D03*
X144742000Y-85716000D03*
X144742000Y-86216000D03*
X144742000Y-86716000D03*
X144742000Y-87216000D03*
X144742000Y-87716000D03*
X144742000Y-88216000D03*
X144742000Y-88716000D03*
X144742000Y-89216000D03*
X144742000Y-89716000D03*
X144742000Y-90216000D03*
X144742000Y-90716000D03*
X144742000Y-91216000D03*
X144742000Y-91716000D03*
X144742000Y-92216000D03*
D58*
X146417000Y-93891000D03*
X146917000Y-93891000D03*
X147417000Y-93891000D03*
X147917000Y-93891000D03*
X148417000Y-93891000D03*
X148917000Y-93891000D03*
X149417000Y-93891000D03*
X149917000Y-93891000D03*
X150417000Y-93891000D03*
X150917000Y-93891000D03*
X151417000Y-93891000D03*
X151917000Y-93891000D03*
X152417000Y-93891000D03*
X152917000Y-93891000D03*
X153417000Y-93891000D03*
X153917000Y-93891000D03*
X154417000Y-93891000D03*
X154917000Y-93891000D03*
X155417000Y-93891000D03*
X155917000Y-93891000D03*
X156417000Y-93891000D03*
X156917000Y-93891000D03*
X157417000Y-93891000D03*
X157917000Y-93891000D03*
X158417000Y-93891000D03*
D57*
X160092000Y-92216000D03*
X160092000Y-91716000D03*
X160092000Y-91216000D03*
X160092000Y-90716000D03*
X160092000Y-90216000D03*
X160092000Y-89716000D03*
X160092000Y-89216000D03*
X160092000Y-88716000D03*
X160092000Y-88216000D03*
X160092000Y-87716000D03*
X160092000Y-87216000D03*
X160092000Y-86716000D03*
X160092000Y-86216000D03*
X160092000Y-85716000D03*
X160092000Y-85216000D03*
X160092000Y-84716000D03*
X160092000Y-84216000D03*
X160092000Y-83716000D03*
X160092000Y-83216000D03*
X160092000Y-82716000D03*
X160092000Y-82216000D03*
X160092000Y-81716000D03*
X160092000Y-81216000D03*
X160092000Y-80716000D03*
X160092000Y-80216000D03*
D58*
X158417000Y-78541000D03*
X157917000Y-78541000D03*
X157417000Y-78541000D03*
X156917000Y-78541000D03*
X156417000Y-78541000D03*
X155917000Y-78541000D03*
X155417000Y-78541000D03*
X154917000Y-78541000D03*
X154417000Y-78541000D03*
X153917000Y-78541000D03*
X153417000Y-78541000D03*
X152917000Y-78541000D03*
X152417000Y-78541000D03*
X151917000Y-78541000D03*
X151417000Y-78541000D03*
X150917000Y-78541000D03*
X150417000Y-78541000D03*
X149917000Y-78541000D03*
X149417000Y-78541000D03*
X148917000Y-78541000D03*
X148417000Y-78541000D03*
X147917000Y-78541000D03*
X147417000Y-78541000D03*
X146917000Y-78541000D03*
X146417000Y-78541000D03*
D59*
X182234800Y-64410000D03*
X182234800Y-67360000D03*
D13*
X129096000Y-87994000D03*
X127271000Y-87994000D03*
D12*
X220244000Y-98179000D03*
X220244000Y-100004000D03*
X137489300Y-108141500D03*
X137489300Y-109966500D03*
X164846000Y-95960000D03*
X164846000Y-97785000D03*
D19*
X115895000Y-143656000D03*
X115895000Y-141756000D03*
D32*
X180632800Y-131959200D03*
X182532800Y-131959200D03*
D13*
X104919000Y-80120000D03*
X103094000Y-80120000D03*
D10*
X189026000Y-99270000D03*
X187126000Y-99270000D03*
D39*
X200213000Y-102341000D03*
X202038000Y-102341000D03*
D14*
X133645000Y-145956000D03*
X133645000Y-143006000D03*
D15*
X102670000Y-87051000D03*
X102670000Y-88321000D03*
X102670000Y-89591000D03*
X102670000Y-90861000D03*
X107620000Y-90861000D03*
X107620000Y-89591000D03*
X107620000Y-88321000D03*
X107620000Y-87051000D03*
D19*
X213820000Y-132543000D03*
X213820000Y-130643000D03*
D24*
X190045000Y-132931000D03*
X187095000Y-132931000D03*
D11*
X211585000Y-138853000D03*
X211585000Y-140753000D03*
D12*
X220244000Y-101688000D03*
X220244000Y-103513000D03*
D19*
X219670000Y-137628000D03*
X219670000Y-135728000D03*
D15*
X179565800Y-84773500D03*
X179565800Y-86043500D03*
X179565800Y-87313500D03*
X179565800Y-88583500D03*
X184515800Y-88583500D03*
X184515800Y-87313500D03*
X184515800Y-86043500D03*
X184515800Y-84773500D03*
D22*
X138354000Y-88756000D03*
X140479000Y-88756000D03*
D60*
X116857000Y-82214800D03*
X116857000Y-81564800D03*
X116857000Y-80914800D03*
X116857000Y-80264800D03*
X116857000Y-79614800D03*
X116857000Y-78964800D03*
X116857000Y-78314800D03*
X116857000Y-77664800D03*
X116857000Y-77014800D03*
X116857000Y-76364800D03*
X116857000Y-75714800D03*
X116857000Y-75064800D03*
X116857000Y-74414800D03*
X116857000Y-73764800D03*
X109657000Y-73764800D03*
X109657000Y-74414800D03*
X109657000Y-75064800D03*
X109657000Y-75714800D03*
X109657000Y-76364800D03*
X109657000Y-77014800D03*
X109657000Y-77664800D03*
X109657000Y-78314800D03*
X109657000Y-78964800D03*
X109657000Y-79614800D03*
X109657000Y-80264800D03*
X109657000Y-80914800D03*
X109657000Y-81564800D03*
X109657000Y-82214800D03*
D23*
X152511800Y-113880000D03*
X152511800Y-112005000D03*
D11*
X134129000Y-90280000D03*
X134129000Y-92180000D03*
D19*
X211445000Y-119888000D03*
X211445000Y-117988000D03*
X205193000Y-100714500D03*
X205193000Y-98814500D03*
D13*
X195185000Y-81977600D03*
X193360000Y-81977600D03*
D61*
X159783000Y-68632400D03*
D21*
X159783000Y-61432400D03*
D39*
X111570000Y-136456000D03*
X113395000Y-136456000D03*
D31*
X183596800Y-95465000D03*
X181721800Y-95465000D03*
D12*
X221770000Y-125493000D03*
X221770000Y-127318000D03*
D19*
X213820000Y-128718000D03*
X213820000Y-126818000D03*
D39*
X213520000Y-117988000D03*
X215345000Y-117988000D03*
D32*
X179286000Y-111202400D03*
X181186000Y-111202400D03*
D12*
X166856000Y-95960000D03*
X166856000Y-97785000D03*
D17*
X225095000Y-96618000D03*
D18*
X225095000Y-99158000D03*
X225095000Y-101698000D03*
X225095000Y-104238000D03*
D39*
X106904000Y-70214000D03*
X108729000Y-70214000D03*
D40*
X89645000Y-85416000D03*
D41*
X89645000Y-87956000D03*
X89645000Y-90496000D03*
D11*
X136161000Y-86602000D03*
X136161000Y-88502000D03*
D39*
X215757500Y-128518000D03*
X217582500Y-128518000D03*
D12*
X142351800Y-108141500D03*
X142351800Y-109966500D03*
D19*
X142511000Y-91296000D03*
X142511000Y-89396000D03*
D32*
X177208500Y-125361000D03*
X179108500Y-125361000D03*
D39*
X177991800Y-95465000D03*
X179816800Y-95465000D03*
D13*
X110370000Y-94861000D03*
X108545000Y-94861000D03*
D12*
X221770000Y-135788000D03*
X221770000Y-137613000D03*
D31*
X99585000Y-79874000D03*
X97710000Y-79874000D03*
D22*
X170952200Y-136790800D03*
X173077200Y-136790800D03*
D17*
X225095000Y-109318000D03*
D18*
X225095000Y-111858000D03*
X225095000Y-114398000D03*
X225095000Y-116938000D03*
X225095000Y-119478000D03*
X225095000Y-122018000D03*
D39*
X97395700Y-75195800D03*
X99220700Y-75195800D03*
X215822500Y-140933000D03*
X217647500Y-140933000D03*
D62*
X138552200Y-122320400D03*
X138552200Y-128924400D03*
D63*
X146027200Y-121226400D03*
X146027200Y-122926400D03*
X146027200Y-124626400D03*
D64*
X155177200Y-124626400D03*
D63*
X146027200Y-126326400D03*
X146027200Y-128026400D03*
D65*
X177884000Y-108996600D03*
X177884000Y-107346600D03*
X179434000Y-107346600D03*
X179434000Y-108996600D03*
D42*
X120413000Y-87994000D03*
X122288000Y-87994000D03*
D11*
X139209000Y-84062000D03*
X139209000Y-85962000D03*
D27*
X159111000Y-141882000D03*
X151311000Y-141882000D03*
X159111000Y-146882000D03*
X151311000Y-146882000D03*
D38*
X222070000Y-140453000D03*
X222070000Y-139153000D03*
X219770000Y-139153000D03*
X219770000Y-140453000D03*
D66*
X100345000Y-142706000D03*
D67*
X111445000Y-145246000D03*
D68*
X111445000Y-140166000D03*
D16*
X221770000Y-133843000D03*
X221770000Y-132018000D03*
D12*
X217725000Y-119223000D03*
X217725000Y-121048000D03*
D10*
X172975000Y-144360000D03*
X171075000Y-144360000D03*
D22*
X170956500Y-141667600D03*
X173081500Y-141667600D03*
D17*
X171947800Y-64566000D03*
D18*
X171947800Y-67106000D03*
X171947800Y-69646000D03*
X171947800Y-72186000D03*
X171947800Y-74726000D03*
X171947800Y-77266000D03*
X171947800Y-79806000D03*
X171947800Y-82346000D03*
D10*
X183113800Y-81725500D03*
X181213800Y-81725500D03*
D13*
X107507500Y-132416000D03*
X105682500Y-132416000D03*
D69*
X138540000Y-90534000D03*
X136415000Y-90534000D03*
D22*
X123145000Y-145206000D03*
X125270000Y-145206000D03*
D10*
X185556000Y-99270000D03*
X183656000Y-99270000D03*
D19*
X197509500Y-106269000D03*
X197509500Y-104369000D03*
D16*
X200319600Y-75014200D03*
X200319600Y-73189200D03*
D20*
X89645000Y-138106000D03*
D21*
X89645000Y-145306000D03*
D11*
X208795000Y-116013000D03*
X208795000Y-117913000D03*
D32*
X185120600Y-120788800D03*
X187020600Y-120788800D03*
D11*
X176951600Y-64846800D03*
X176951600Y-66746800D03*
D70*
X91457000Y-62594000D03*
D71*
X91457000Y-60054000D03*
X93997000Y-62594000D03*
X93997000Y-60054000D03*
X96537000Y-62594000D03*
X96537000Y-60054000D03*
X99077000Y-62594000D03*
X99077000Y-60054000D03*
X101617000Y-62594000D03*
X101617000Y-60054000D03*
X104157000Y-62594000D03*
X104157000Y-60054000D03*
X106697000Y-62594000D03*
X106697000Y-60054000D03*
X109237000Y-62594000D03*
X109237000Y-60054000D03*
X111777000Y-62594000D03*
X111777000Y-60054000D03*
X114317000Y-62594000D03*
X114317000Y-60054000D03*
D72*
X128552200Y-123376400D03*
X128552200Y-133376400D03*
M02*
