G04 #@! TF.GenerationSoftware,KiCad,Pcbnew,8.0.4*
G04 #@! TF.CreationDate,2024-09-23T19:32:32+09:00*
G04 #@! TF.ProjectId,Solid Rocket Motor Test Station ver 2.0,536f6c69-6420-4526-9f63-6b6574204d6f,2.0*
G04 #@! TF.SameCoordinates,Original*
G04 #@! TF.FileFunction,Paste,Top*
G04 #@! TF.FilePolarity,Positive*
%FSLAX46Y46*%
G04 Gerber Fmt 4.6, Leading zero omitted, Abs format (unit mm)*
G04 Created by KiCad (PCBNEW 8.0.4) date 2024-09-23 19:32:32*
%MOMM*%
%LPD*%
G01*
G04 APERTURE LIST*
G04 Aperture macros list*
%AMRoundRect*
0 Rectangle with rounded corners*
0 $1 Rounding radius*
0 $2 $3 $4 $5 $6 $7 $8 $9 X,Y pos of 4 corners*
0 Add a 4 corners polygon primitive as box body*
4,1,4,$2,$3,$4,$5,$6,$7,$8,$9,$2,$3,0*
0 Add four circle primitives for the rounded corners*
1,1,$1+$1,$2,$3*
1,1,$1+$1,$4,$5*
1,1,$1+$1,$6,$7*
1,1,$1+$1,$8,$9*
0 Add four rect primitives between the rounded corners*
20,1,$1+$1,$2,$3,$4,$5,0*
20,1,$1+$1,$4,$5,$6,$7,0*
20,1,$1+$1,$6,$7,$8,$9,0*
20,1,$1+$1,$8,$9,$2,$3,0*%
G04 Aperture macros list end*
%ADD10RoundRect,0.250000X0.262500X0.450000X-0.262500X0.450000X-0.262500X-0.450000X0.262500X-0.450000X0*%
%ADD11RoundRect,0.250000X-0.475000X0.250000X-0.475000X-0.250000X0.475000X-0.250000X0.475000X0.250000X0*%
%ADD12RoundRect,0.250000X1.100000X-0.325000X1.100000X0.325000X-1.100000X0.325000X-1.100000X-0.325000X0*%
%ADD13RoundRect,0.250000X0.475000X-0.250000X0.475000X0.250000X-0.475000X0.250000X-0.475000X-0.250000X0*%
%ADD14RoundRect,0.250000X-0.450000X0.262500X-0.450000X-0.262500X0.450000X-0.262500X0.450000X0.262500X0*%
%ADD15RoundRect,0.135000X0.185000X-0.135000X0.185000X0.135000X-0.185000X0.135000X-0.185000X-0.135000X0*%
%ADD16RoundRect,0.250000X-0.650000X0.325000X-0.650000X-0.325000X0.650000X-0.325000X0.650000X0.325000X0*%
%ADD17RoundRect,0.243750X-0.243750X-0.456250X0.243750X-0.456250X0.243750X0.456250X-0.243750X0.456250X0*%
%ADD18RoundRect,0.250000X-0.325000X-1.100000X0.325000X-1.100000X0.325000X1.100000X-0.325000X1.100000X0*%
%ADD19RoundRect,0.250000X-0.262500X-0.450000X0.262500X-0.450000X0.262500X0.450000X-0.262500X0.450000X0*%
%ADD20RoundRect,0.250000X0.250000X0.475000X-0.250000X0.475000X-0.250000X-0.475000X0.250000X-0.475000X0*%
%ADD21RoundRect,0.167500X-0.167500X-0.407500X0.167500X-0.407500X0.167500X0.407500X-0.167500X0.407500X0*%
%ADD22RoundRect,0.100000X-0.625000X-0.100000X0.625000X-0.100000X0.625000X0.100000X-0.625000X0.100000X0*%
%ADD23R,3.000000X1.524000*%
%ADD24RoundRect,0.135000X-0.185000X0.135000X-0.185000X-0.135000X0.185000X-0.135000X0.185000X0.135000X0*%
%ADD25RoundRect,0.150000X-0.512500X-0.150000X0.512500X-0.150000X0.512500X0.150000X-0.512500X0.150000X0*%
%ADD26RoundRect,0.250000X0.625000X-0.312500X0.625000X0.312500X-0.625000X0.312500X-0.625000X-0.312500X0*%
%ADD27RoundRect,0.250000X-0.250000X-0.475000X0.250000X-0.475000X0.250000X0.475000X-0.250000X0.475000X0*%
%ADD28RoundRect,0.243750X0.243750X0.456250X-0.243750X0.456250X-0.243750X-0.456250X0.243750X-0.456250X0*%
%ADD29RoundRect,0.150000X0.150000X-0.587500X0.150000X0.587500X-0.150000X0.587500X-0.150000X-0.587500X0*%
%ADD30R,1.450000X0.600000*%
%ADD31R,1.450000X0.300000*%
%ADD32RoundRect,0.100000X0.300000X0.100000X-0.300000X0.100000X-0.300000X-0.100000X0.300000X-0.100000X0*%
%ADD33R,3.000000X2.000000*%
%ADD34R,3.200000X1.200000*%
%ADD35RoundRect,0.250000X0.325000X1.100000X-0.325000X1.100000X-0.325000X-1.100000X0.325000X-1.100000X0*%
%ADD36RoundRect,0.250000X0.450000X-0.262500X0.450000X0.262500X-0.450000X0.262500X-0.450000X-0.262500X0*%
%ADD37RoundRect,0.200000X0.200000X0.275000X-0.200000X0.275000X-0.200000X-0.275000X0.200000X-0.275000X0*%
%ADD38RoundRect,0.100000X-0.100000X0.637500X-0.100000X-0.637500X0.100000X-0.637500X0.100000X0.637500X0*%
%ADD39RoundRect,0.218750X-0.381250X0.218750X-0.381250X-0.218750X0.381250X-0.218750X0.381250X0.218750X0*%
%ADD40RoundRect,0.200000X-0.200000X-0.275000X0.200000X-0.275000X0.200000X0.275000X-0.200000X0.275000X0*%
%ADD41RoundRect,0.150000X-0.875000X-0.150000X0.875000X-0.150000X0.875000X0.150000X-0.875000X0.150000X0*%
%ADD42RoundRect,0.175000X-0.175000X0.225000X-0.175000X-0.225000X0.175000X-0.225000X0.175000X0.225000X0*%
%ADD43R,2.000000X3.000000*%
%ADD44RoundRect,0.175000X0.175000X0.575000X-0.175000X0.575000X-0.175000X-0.575000X0.175000X-0.575000X0*%
%ADD45RoundRect,0.175000X0.575000X0.175000X-0.575000X0.175000X-0.575000X-0.175000X0.575000X-0.175000X0*%
%ADD46RoundRect,0.175000X0.175000X-0.575000X0.175000X0.575000X-0.175000X0.575000X-0.175000X-0.575000X0*%
%ADD47RoundRect,0.175000X1.075000X0.175000X-1.075000X0.175000X-1.075000X-0.175000X1.075000X-0.175000X0*%
%ADD48RoundRect,0.150000X0.825000X0.150000X-0.825000X0.150000X-0.825000X-0.150000X0.825000X-0.150000X0*%
%ADD49RoundRect,0.250000X-0.300000X2.050000X-0.300000X-2.050000X0.300000X-2.050000X0.300000X2.050000X0*%
%ADD50RoundRect,0.250000X-2.375000X2.025000X-2.375000X-2.025000X2.375000X-2.025000X2.375000X2.025000X0*%
%ADD51R,1.000000X0.600000*%
%ADD52R,0.350000X0.650000*%
%ADD53R,24.000000X33.000000*%
%ADD54RoundRect,0.075000X-0.725000X-0.075000X0.725000X-0.075000X0.725000X0.075000X-0.725000X0.075000X0*%
%ADD55RoundRect,0.075000X-0.075000X-0.725000X0.075000X-0.725000X0.075000X0.725000X-0.075000X0.725000X0*%
%ADD56RoundRect,0.250000X-1.100000X0.325000X-1.100000X-0.325000X1.100000X-0.325000X1.100000X0.325000X0*%
%ADD57RoundRect,0.250000X-0.650000X1.000000X-0.650000X-1.000000X0.650000X-1.000000X0.650000X1.000000X0*%
%ADD58RoundRect,0.250000X0.650000X2.450000X-0.650000X2.450000X-0.650000X-2.450000X0.650000X-2.450000X0*%
%ADD59RoundRect,0.218750X-0.218750X-0.381250X0.218750X-0.381250X0.218750X0.381250X-0.218750X0.381250X0*%
%ADD60R,1.750000X0.450000*%
%ADD61RoundRect,0.250000X-0.312500X-0.625000X0.312500X-0.625000X0.312500X0.625000X-0.312500X0.625000X0*%
%ADD62R,5.400000X2.900000*%
%ADD63R,3.500000X2.500000*%
%ADD64RoundRect,0.250000X-2.050000X-0.300000X2.050000X-0.300000X2.050000X0.300000X-2.050000X0.300000X0*%
%ADD65RoundRect,0.250000X-2.025000X-2.375000X2.025000X-2.375000X2.025000X2.375000X-2.025000X2.375000X0*%
%ADD66RoundRect,0.162500X0.262500X-0.162500X0.262500X0.162500X-0.262500X0.162500X-0.262500X-0.162500X0*%
%ADD67RoundRect,0.250000X-0.625000X0.312500X-0.625000X-0.312500X0.625000X-0.312500X0.625000X0.312500X0*%
%ADD68RoundRect,0.218750X0.218750X0.381250X-0.218750X0.381250X-0.218750X-0.381250X0.218750X-0.381250X0*%
G04 APERTURE END LIST*
D10*
X114822800Y-93076000D03*
X112997800Y-93076000D03*
D11*
X216689800Y-112671000D03*
X216689800Y-114571000D03*
X184740200Y-136618000D03*
X184740200Y-138518000D03*
D12*
X127823000Y-82892000D03*
X127823000Y-79942000D03*
D13*
X202121600Y-145008000D03*
X202121600Y-143108000D03*
D14*
X131145400Y-104446200D03*
X131145400Y-106271200D03*
D15*
X231391800Y-127488500D03*
X231391800Y-126468500D03*
D16*
X205942200Y-108696200D03*
X205942200Y-111646200D03*
D17*
X177810800Y-101735000D03*
X179685800Y-101735000D03*
D13*
X222941800Y-122836000D03*
X222941800Y-120936000D03*
D11*
X187938200Y-150962600D03*
X187938200Y-152862600D03*
D13*
X160562600Y-106422800D03*
X160562600Y-104522800D03*
D18*
X110722800Y-121956000D03*
X113672800Y-121956000D03*
D11*
X150027800Y-109296000D03*
X150027800Y-111196000D03*
D19*
X182583300Y-99576000D03*
X184408300Y-99576000D03*
D20*
X126897800Y-99956000D03*
X124997800Y-99956000D03*
D11*
X204725600Y-69956200D03*
X204725600Y-71856200D03*
X187446000Y-136626000D03*
X187446000Y-138526000D03*
D21*
X192286000Y-136666000D03*
X192286000Y-138086000D03*
X193106000Y-136666000D03*
X193106000Y-138086000D03*
D22*
X190546000Y-135751000D03*
X190546000Y-136401000D03*
X190546000Y-137051000D03*
X190546000Y-137701000D03*
X190546000Y-138351000D03*
X190546000Y-139001000D03*
X194846000Y-139001000D03*
X194846000Y-138351000D03*
X194846000Y-137701000D03*
X194846000Y-137051000D03*
X194846000Y-136401000D03*
X194846000Y-135751000D03*
D11*
X233561800Y-119676000D03*
X233561800Y-121576000D03*
X231091800Y-138841000D03*
X231091800Y-140741000D03*
D23*
X124917000Y-94877000D03*
X132717000Y-94877000D03*
X124917000Y-89877000D03*
X132717000Y-89877000D03*
D24*
X219483800Y-106102500D03*
X219483800Y-107122500D03*
D11*
X231166800Y-148826000D03*
X231166800Y-150726000D03*
D25*
X101742700Y-73128200D03*
X101742700Y-74078200D03*
X101742700Y-75028200D03*
X104017700Y-75028200D03*
X104017700Y-74078200D03*
X104017700Y-73128200D03*
D13*
X121893000Y-80397800D03*
X121893000Y-78497800D03*
X197825600Y-138868000D03*
X197825600Y-136968000D03*
D26*
X121337800Y-100723000D03*
X121337800Y-97798000D03*
D13*
X175657800Y-106256000D03*
X175657800Y-104356000D03*
D23*
X169951800Y-90258500D03*
X177751800Y-90258500D03*
X169951800Y-85258500D03*
X177751800Y-85258500D03*
D27*
X192141800Y-123119700D03*
X194041800Y-123119700D03*
D28*
X99585000Y-82914000D03*
X97710000Y-82914000D03*
D29*
X124017800Y-73176000D03*
X125917800Y-73176000D03*
X124967800Y-71301000D03*
D11*
X106918800Y-76140600D03*
X106918800Y-78040600D03*
D27*
X184572600Y-117639200D03*
X186472600Y-117639200D03*
D26*
X229241800Y-121637800D03*
X229241800Y-118712800D03*
D20*
X108927000Y-122456000D03*
X107027000Y-122456000D03*
D11*
X127617800Y-120932000D03*
X127617800Y-122832000D03*
D30*
X93926000Y-70772000D03*
X93926000Y-71572000D03*
D31*
X93926000Y-72772000D03*
X93926000Y-73772000D03*
X93926000Y-74272000D03*
X93926000Y-75272000D03*
D30*
X93926000Y-76472000D03*
X93926000Y-77272000D03*
X93926000Y-77272000D03*
X93926000Y-76472000D03*
D31*
X93926000Y-75772000D03*
X93926000Y-74772000D03*
X93926000Y-73272000D03*
X93926000Y-72272000D03*
D30*
X93926000Y-71572000D03*
X93926000Y-70772000D03*
D20*
X197312600Y-115772800D03*
X195412600Y-115772800D03*
D27*
X193122200Y-133895200D03*
X195022200Y-133895200D03*
D13*
X231091800Y-134216000D03*
X231091800Y-132316000D03*
D32*
X219243800Y-110827000D03*
X219243800Y-109527000D03*
X216943800Y-109527000D03*
X216943800Y-110827000D03*
D33*
X148057800Y-132546000D03*
X148057800Y-142546000D03*
D19*
X97395700Y-72909800D03*
X99220700Y-72909800D03*
D34*
X155462600Y-124852800D03*
X155462600Y-135012800D03*
X155462600Y-140092800D03*
X180662600Y-140092800D03*
X180662600Y-135012800D03*
X180662600Y-129932800D03*
X180662600Y-124852800D03*
D19*
X227254300Y-137691000D03*
X229079300Y-137691000D03*
D26*
X199812600Y-153453200D03*
X199812600Y-150528200D03*
D10*
X104894000Y-82660000D03*
X103069000Y-82660000D03*
X126187800Y-152810200D03*
X124362800Y-152810200D03*
D20*
X206409200Y-147019600D03*
X204509200Y-147019600D03*
D17*
X119772800Y-152806000D03*
X121647800Y-152806000D03*
D11*
X202118500Y-131045200D03*
X202118500Y-132945200D03*
D35*
X194431400Y-120179200D03*
X191481400Y-120179200D03*
D14*
X200000600Y-137005500D03*
X200000600Y-138830500D03*
D19*
X227316800Y-145541000D03*
X229141800Y-145541000D03*
D36*
X211329600Y-79320000D03*
X211329600Y-77495000D03*
D16*
X222916800Y-135007800D03*
X222916800Y-137957800D03*
D20*
X208606800Y-70941800D03*
X206706800Y-70941800D03*
D37*
X125787800Y-75436000D03*
X124137800Y-75436000D03*
D19*
X225016800Y-122836000D03*
X226841800Y-122836000D03*
D24*
X231431800Y-120108500D03*
X231431800Y-121128500D03*
D38*
X200216600Y-107596200D03*
X199566600Y-107596200D03*
X198916600Y-107596200D03*
X198266600Y-107596200D03*
X197616600Y-107596200D03*
X196966600Y-107596200D03*
X196316600Y-107596200D03*
X195666600Y-107596200D03*
X195016600Y-107596200D03*
X194366600Y-107596200D03*
X193716600Y-107596200D03*
X193066600Y-107596200D03*
X192416600Y-107596200D03*
X191766600Y-107596200D03*
X191766600Y-113321200D03*
X192416600Y-113321200D03*
X193066600Y-113321200D03*
X193716600Y-113321200D03*
X194366600Y-113321200D03*
X195016600Y-113321200D03*
X195666600Y-113321200D03*
X196316600Y-113321200D03*
X196966600Y-113321200D03*
X197616600Y-113321200D03*
X198266600Y-113321200D03*
X198916600Y-113321200D03*
X199566600Y-113321200D03*
X200216600Y-113321200D03*
D32*
X233566800Y-137166000D03*
X233566800Y-135866000D03*
X231266800Y-135866000D03*
X231266800Y-137166000D03*
D13*
X119353000Y-80397800D03*
X119353000Y-78497800D03*
D17*
X192385800Y-101735000D03*
X194260800Y-101735000D03*
D39*
X124179000Y-80483300D03*
X124179000Y-82608300D03*
D40*
X178035800Y-99576000D03*
X179685800Y-99576000D03*
D17*
X197465800Y-101735000D03*
X199340800Y-101735000D03*
D41*
X163412600Y-104532800D03*
X163412600Y-105802800D03*
X163412600Y-107072800D03*
X163412600Y-108342800D03*
X163412600Y-109612800D03*
X163412600Y-110882800D03*
X163412600Y-112152800D03*
X163412600Y-113422800D03*
X163412600Y-114692800D03*
X163412600Y-115962800D03*
X172712600Y-115962800D03*
X172712600Y-114692800D03*
X172712600Y-113422800D03*
X172712600Y-112152800D03*
X172712600Y-110882800D03*
X172712600Y-109612800D03*
X172712600Y-108342800D03*
X172712600Y-107072800D03*
X172712600Y-105802800D03*
X172712600Y-104532800D03*
D19*
X192410800Y-99576000D03*
X194235800Y-99576000D03*
D13*
X233581800Y-127946000D03*
X233581800Y-126046000D03*
D19*
X187305800Y-99576000D03*
X189130800Y-99576000D03*
D15*
X219483800Y-114131000D03*
X219483800Y-113111000D03*
D27*
X133642600Y-105661600D03*
X135542600Y-105661600D03*
D13*
X225381800Y-145741000D03*
X225381800Y-143841000D03*
D19*
X197490800Y-99576000D03*
X199315800Y-99576000D03*
D42*
X128395800Y-114704000D03*
X128395800Y-116004000D03*
X129395800Y-116004000D03*
X129395800Y-114704000D03*
D43*
X104853800Y-126384000D03*
X94853800Y-126384000D03*
D44*
X197812600Y-122472800D03*
X199082600Y-122472800D03*
X200352600Y-122472800D03*
D45*
X201232600Y-120322800D03*
D46*
X200352600Y-118172800D03*
X199082600Y-118172800D03*
X197812600Y-118172800D03*
D47*
X197332600Y-120322800D03*
D48*
X127445000Y-107232600D03*
X127445000Y-105962600D03*
X127445000Y-104692600D03*
X127445000Y-103422600D03*
X122495000Y-103422600D03*
X122495000Y-104692600D03*
X122495000Y-105962600D03*
X122495000Y-107232600D03*
D49*
X116512800Y-96731000D03*
D50*
X116747800Y-103456000D03*
X111197800Y-103456000D03*
X116747800Y-108306000D03*
X111197800Y-108306000D03*
D49*
X111432800Y-96731000D03*
D40*
X207625800Y-99576000D03*
X209275800Y-99576000D03*
D13*
X208996300Y-109187000D03*
X208996300Y-107287000D03*
D17*
X182558300Y-101735000D03*
X184433300Y-101735000D03*
D18*
X187227800Y-124876000D03*
X190177800Y-124876000D03*
D13*
X211177200Y-71754600D03*
X211177200Y-69854600D03*
D19*
X202570800Y-99576000D03*
X204395800Y-99576000D03*
D27*
X193137400Y-147865200D03*
X195037400Y-147865200D03*
D13*
X225381800Y-149461000D03*
X225381800Y-147561000D03*
D32*
X231401800Y-124466000D03*
X231401800Y-123166000D03*
X229101800Y-123166000D03*
X229101800Y-124466000D03*
D13*
X197475800Y-152864000D03*
X197475800Y-150964000D03*
D51*
X193748200Y-125964500D03*
X192548200Y-125964500D03*
X193748200Y-126739500D03*
X192548200Y-126739500D03*
D52*
X194123200Y-124802000D03*
X193473200Y-124802000D03*
X192823200Y-124802000D03*
X192173200Y-124802000D03*
X192173200Y-127902000D03*
X192823200Y-127902000D03*
X193473200Y-127902000D03*
X194123200Y-127902000D03*
D48*
X227865800Y-109303000D03*
X227865800Y-108033000D03*
X227865800Y-106763000D03*
X227865800Y-105493000D03*
X222915800Y-105493000D03*
X222915800Y-106763000D03*
X222915800Y-108033000D03*
X222915800Y-109303000D03*
D15*
X233266800Y-150263500D03*
X233266800Y-149243500D03*
D53*
X149286600Y-77492400D03*
D19*
X211709800Y-111221000D03*
X213534800Y-111221000D03*
D18*
X199172600Y-128322800D03*
X202122600Y-128322800D03*
D54*
X131880800Y-110482000D03*
X131880800Y-110982000D03*
X131880800Y-111482000D03*
X131880800Y-111982000D03*
X131880800Y-112482000D03*
X131880800Y-112982000D03*
X131880800Y-113482000D03*
X131880800Y-113982000D03*
X131880800Y-114482000D03*
X131880800Y-114982000D03*
X131880800Y-115482000D03*
X131880800Y-115982000D03*
X131880800Y-116482000D03*
X131880800Y-116982000D03*
X131880800Y-117482000D03*
X131880800Y-117982000D03*
X131880800Y-118482000D03*
X131880800Y-118982000D03*
X131880800Y-119482000D03*
X131880800Y-119982000D03*
X131880800Y-120482000D03*
X131880800Y-120982000D03*
X131880800Y-121482000D03*
X131880800Y-121982000D03*
X131880800Y-122482000D03*
D55*
X133555800Y-124157000D03*
X134055800Y-124157000D03*
X134555800Y-124157000D03*
X135055800Y-124157000D03*
X135555800Y-124157000D03*
X136055800Y-124157000D03*
X136555800Y-124157000D03*
X137055800Y-124157000D03*
X137555800Y-124157000D03*
X138055800Y-124157000D03*
X138555800Y-124157000D03*
X139055800Y-124157000D03*
X139555800Y-124157000D03*
X140055800Y-124157000D03*
X140555800Y-124157000D03*
X141055800Y-124157000D03*
X141555800Y-124157000D03*
X142055800Y-124157000D03*
X142555800Y-124157000D03*
X143055800Y-124157000D03*
X143555800Y-124157000D03*
X144055800Y-124157000D03*
X144555800Y-124157000D03*
X145055800Y-124157000D03*
X145555800Y-124157000D03*
D54*
X147230800Y-122482000D03*
X147230800Y-121982000D03*
X147230800Y-121482000D03*
X147230800Y-120982000D03*
X147230800Y-120482000D03*
X147230800Y-119982000D03*
X147230800Y-119482000D03*
X147230800Y-118982000D03*
X147230800Y-118482000D03*
X147230800Y-117982000D03*
X147230800Y-117482000D03*
X147230800Y-116982000D03*
X147230800Y-116482000D03*
X147230800Y-115982000D03*
X147230800Y-115482000D03*
X147230800Y-114982000D03*
X147230800Y-114482000D03*
X147230800Y-113982000D03*
X147230800Y-113482000D03*
X147230800Y-112982000D03*
X147230800Y-112482000D03*
X147230800Y-111982000D03*
X147230800Y-111482000D03*
X147230800Y-110982000D03*
X147230800Y-110482000D03*
D55*
X145555800Y-108807000D03*
X145055800Y-108807000D03*
X144555800Y-108807000D03*
X144055800Y-108807000D03*
X143555800Y-108807000D03*
X143055800Y-108807000D03*
X142555800Y-108807000D03*
X142055800Y-108807000D03*
X141555800Y-108807000D03*
X141055800Y-108807000D03*
X140555800Y-108807000D03*
X140055800Y-108807000D03*
X139555800Y-108807000D03*
X139055800Y-108807000D03*
X138555800Y-108807000D03*
X138055800Y-108807000D03*
X137555800Y-108807000D03*
X137055800Y-108807000D03*
X136555800Y-108807000D03*
X136055800Y-108807000D03*
X135555800Y-108807000D03*
X135055800Y-108807000D03*
X134555800Y-108807000D03*
X134055800Y-108807000D03*
X133555800Y-108807000D03*
D56*
X193244800Y-64855000D03*
X193244800Y-67805000D03*
D10*
X127527800Y-111826000D03*
X125702800Y-111826000D03*
D14*
X231740800Y-105027000D03*
X231740800Y-106852000D03*
D11*
X195947800Y-126056000D03*
X195947800Y-127956000D03*
D10*
X104919000Y-80120000D03*
X103094000Y-80120000D03*
D20*
X199680600Y-105447200D03*
X197780600Y-105447200D03*
D27*
X190567000Y-115404000D03*
X192467000Y-115404000D03*
D19*
X211709800Y-109189000D03*
X213534800Y-109189000D03*
D23*
X169951800Y-80606500D03*
X177751800Y-80606500D03*
X169951800Y-75606500D03*
X177751800Y-75606500D03*
D57*
X103197800Y-144706000D03*
X103197800Y-148706000D03*
D36*
X133447800Y-82341000D03*
X133447800Y-80516000D03*
D18*
X192000400Y-145039400D03*
X194950400Y-145039400D03*
D58*
X170612600Y-150522800D03*
X165512600Y-150522800D03*
D13*
X225316800Y-139391000D03*
X225316800Y-137491000D03*
D23*
X169951800Y-71462500D03*
X177751800Y-71462500D03*
X169951800Y-66462500D03*
X177751800Y-66462500D03*
D35*
X195446000Y-131026000D03*
X192496000Y-131026000D03*
X190187800Y-142086000D03*
X187237800Y-142086000D03*
D16*
X223081800Y-145172800D03*
X223081800Y-148122800D03*
D14*
X231740800Y-108536000D03*
X231740800Y-110361000D03*
D13*
X231166800Y-144476000D03*
X231166800Y-142576000D03*
D48*
X157557800Y-119846000D03*
X157557800Y-118576000D03*
X157557800Y-117306000D03*
X157557800Y-116036000D03*
X152607800Y-116036000D03*
X152607800Y-117306000D03*
X152607800Y-118576000D03*
X152607800Y-119846000D03*
D10*
X189803100Y-113321200D03*
X187978100Y-113321200D03*
D59*
X125492800Y-119022000D03*
X127617800Y-119022000D03*
D60*
X116857000Y-82214800D03*
X116857000Y-81564800D03*
X116857000Y-80914800D03*
X116857000Y-80264800D03*
X116857000Y-79614800D03*
X116857000Y-78964800D03*
X116857000Y-78314800D03*
X116857000Y-77664800D03*
X116857000Y-77014800D03*
X116857000Y-76364800D03*
X116857000Y-75714800D03*
X116857000Y-75064800D03*
X116857000Y-74414800D03*
X116857000Y-73764800D03*
X109657000Y-73764800D03*
X109657000Y-74414800D03*
X109657000Y-75064800D03*
X109657000Y-75714800D03*
X109657000Y-76364800D03*
X109657000Y-77014800D03*
X109657000Y-77664800D03*
X109657000Y-78314800D03*
X109657000Y-78964800D03*
X109657000Y-79614800D03*
X109657000Y-80264800D03*
X109657000Y-80914800D03*
X109657000Y-81564800D03*
X109657000Y-82214800D03*
D11*
X121267800Y-120546000D03*
X121267800Y-122446000D03*
D13*
X222941800Y-126736000D03*
X222941800Y-124836000D03*
X216689800Y-107562500D03*
X216689800Y-105662500D03*
D17*
X187305800Y-101735000D03*
X189180800Y-101735000D03*
D21*
X192287000Y-150659200D03*
X192287000Y-152079200D03*
X193107000Y-150659200D03*
X193107000Y-152079200D03*
D22*
X190547000Y-149744200D03*
X190547000Y-150394200D03*
X190547000Y-151044200D03*
X190547000Y-151694200D03*
X190547000Y-152344200D03*
X190547000Y-152994200D03*
X194847000Y-152994200D03*
X194847000Y-152344200D03*
X194847000Y-151694200D03*
X194847000Y-151044200D03*
X194847000Y-150394200D03*
X194847000Y-149744200D03*
D24*
X233266800Y-132743500D03*
X233266800Y-133763500D03*
D13*
X225316800Y-135566000D03*
X225316800Y-133666000D03*
D19*
X225016800Y-124836000D03*
X226841800Y-124836000D03*
D20*
X189647800Y-146666000D03*
X187747800Y-146666000D03*
D61*
X106354000Y-70214000D03*
X109279000Y-70214000D03*
D11*
X123299800Y-116868000D03*
X123299800Y-118768000D03*
D17*
X202545800Y-101735000D03*
X204420800Y-101735000D03*
D19*
X227254300Y-135366000D03*
X229079300Y-135366000D03*
D13*
X129649800Y-121562000D03*
X129649800Y-119662000D03*
D20*
X193837800Y-117446000D03*
X191937800Y-117446000D03*
D24*
X233266800Y-143038500D03*
X233266800Y-144058500D03*
D62*
X116447800Y-137206000D03*
X116447800Y-127306000D03*
D28*
X99585000Y-79874000D03*
X97710000Y-79874000D03*
D19*
X97395700Y-75195800D03*
X99220700Y-75195800D03*
X227319300Y-147781000D03*
X229144300Y-147781000D03*
D63*
X119697800Y-140956000D03*
X119697800Y-147560000D03*
D27*
X187757800Y-128486000D03*
X189657800Y-128486000D03*
D64*
X125797800Y-139556000D03*
X125797800Y-141256000D03*
X125797800Y-142956000D03*
D65*
X132522800Y-140181000D03*
X132522800Y-145731000D03*
X137372800Y-140181000D03*
X137372800Y-145731000D03*
D64*
X125797800Y-144656000D03*
X125797800Y-146356000D03*
D23*
X169951800Y-62358500D03*
X177751800Y-62358500D03*
X169951800Y-57358500D03*
X177751800Y-57358500D03*
D66*
X184800600Y-114971200D03*
X186350600Y-114971200D03*
X186350600Y-113321200D03*
X184800600Y-113321200D03*
D17*
X122014800Y-111826000D03*
X123889800Y-111826000D03*
D11*
X126347800Y-114328000D03*
X126347800Y-116228000D03*
D23*
X155947800Y-147456000D03*
X148147800Y-147456000D03*
X155947800Y-152456000D03*
X148147800Y-152456000D03*
D32*
X233566800Y-147301000D03*
X233566800Y-146001000D03*
X231266800Y-146001000D03*
X231266800Y-147301000D03*
D20*
X206507700Y-134875600D03*
X204607700Y-134875600D03*
D13*
X185042600Y-152883000D03*
X185042600Y-150983000D03*
D15*
X233266800Y-140288500D03*
X233266800Y-139268500D03*
D67*
X229221800Y-126007800D03*
X229221800Y-128932800D03*
D68*
X125678800Y-120800000D03*
X123553800Y-120800000D03*
D20*
X196222600Y-105447200D03*
X194322600Y-105447200D03*
D13*
X209006300Y-113117000D03*
X209006300Y-111217000D03*
D25*
X204333800Y-143120400D03*
X204333800Y-144070400D03*
X204333800Y-145020400D03*
X206608800Y-145020400D03*
X206608800Y-143120400D03*
D36*
X211329600Y-75459200D03*
X211329600Y-73634200D03*
D13*
X151947800Y-124606000D03*
X151947800Y-122706000D03*
D16*
X220291800Y-122317800D03*
X220291800Y-125267800D03*
D27*
X199102600Y-125612800D03*
X201002600Y-125612800D03*
D11*
X187961600Y-65291800D03*
X187961600Y-67191800D03*
D43*
X126041800Y-132028000D03*
X136041800Y-132028000D03*
D25*
X204384600Y-131030000D03*
X204384600Y-131980000D03*
X204384600Y-132930000D03*
X206659600Y-132930000D03*
X206659600Y-131030000D03*
D17*
X207625800Y-101735000D03*
X209500800Y-101735000D03*
M02*
