M48
; DRILL file {KiCad 8.0.4} date 2024-09-23T19:32:43+0900
; FORMAT={-:-/ absolute / metric / decimal}
; #@! TF.CreationDate,2024-09-23T19:32:43+09:00
; #@! TF.GenerationSoftware,Kicad,Pcbnew,8.0.4
; #@! TF.FileFunction,Plated,1,6,PTH
FMAT,2
METRIC
; #@! TA.AperFunction,Plated,PTH,ViaDrill
T1C0.300
; #@! TA.AperFunction,Plated,PTH,ComponentDrill
T2C0.600
; #@! TA.AperFunction,Plated,PTH,ComponentDrill
T3C0.762
; #@! TA.AperFunction,Plated,PTH,ComponentDrill
T4C0.950
; #@! TA.AperFunction,Plated,PTH,ComponentDrill
T5C1.000
; #@! TA.AperFunction,Plated,PTH,ViaDrill
T6C3.100
; #@! TA.AperFunction,Plated,PTH,ComponentDrill
T7C4.500
%
G90
G05
T1
X89.425Y-72.752
X89.425Y-75.8
X91.25Y-72.752
X91.25Y-75.8
X92.448Y-131.456
X92.448Y-133.956
X94.628Y-125.716
X94.628Y-126.216
X94.628Y-126.716
X94.628Y-127.216
X95.109Y-73.122
X95.109Y-74.422
X95.128Y-125.716
X95.128Y-126.216
X95.128Y-126.716
X95.128Y-127.216
X95.878Y-70.786
X96.722Y-79.866
X96.791Y-77.741
X97.71Y-82.914
X100.281Y-135.136
X100.303Y-130.056
X100.303Y-132.596
X101.743Y-74.078
X106.919Y-78.041
X107.114Y-122.436
X110.448Y-120.956
X110.448Y-121.456
X110.448Y-121.956
X110.448Y-122.456
X110.448Y-122.956
X110.948Y-120.956
X110.948Y-121.456
X110.948Y-121.956
X110.948Y-122.456
X110.948Y-122.956
X112.285Y-74.539
X112.285Y-76.364
X112.285Y-78.124
X112.285Y-80.024
X113.718Y-120.15
X113.718Y-121.928
X113.994Y-78.315
X114.068Y-79.346
X114.878Y-99.716
X114.958Y-97.226
X116.448Y-93.456
X116.778Y-99.716
X116.863Y-147.5
X116.968Y-139.186
X117.909Y-121.739
X118.088Y-82.216
X118.723Y-143.14
X118.738Y-95.936
X118.748Y-100.256
X119.304Y-78.449
X119.56Y-130.372
X119.773Y-152.806
X119.948Y-115.456
X119.973Y-104.726
X119.973Y-108.016
X120.283Y-111.511
X120.338Y-109.666
X120.398Y-137.371
X120.548Y-147.456
X120.548Y-147.956
X120.548Y-148.456
X120.578Y-106.476
X121.048Y-147.456
X121.048Y-147.956
X121.048Y-148.456
X121.268Y-120.546
X121.338Y-125.484
X121.548Y-99.256
X121.697Y-143.205
X121.849Y-146.012
X121.878Y-78.498
X122.015Y-111.826
X122.1Y-128.786
X122.354Y-124.722
X122.548Y-91.156
X122.563Y-122.586
X122.928Y-130.951
X122.948Y-108.456
X123.3Y-118.846
X124.228Y-116.846
X124.437Y-91.372
X124.537Y-104.903
X124.537Y-106.803
X124.818Y-127.726
X124.998Y-99.956
X125.046Y-136.101
X125.508Y-116.276
X125.618Y-79.916
X125.788Y-75.436
X125.798Y-142.956
X126.042Y-132.028
X126.188Y-152.81
X126.348Y-113.736
X126.379Y-78.498
X126.548Y-122.806
X127.535Y-99.322
X127.748Y-83.856
X127.823Y-79.942
X128.094Y-137.524
X128.45Y-144.636
X128.476Y-121.974
X128.824Y-123.25
X129.348Y-82.856
X129.538Y-123.796
X130.448Y-137.456
X130.491Y-107.258
X131.145Y-104.446
X131.244Y-99.576
X131.785Y-107.359
X131.831Y-108.158
X131.852Y-108.957
X131.898Y-109.756
X131.948Y-139.456
X131.948Y-139.956
X131.948Y-140.456
X131.948Y-140.956
X131.948Y-142.456
X131.948Y-142.956
X131.948Y-143.456
X131.948Y-143.956
X131.948Y-145.456
X131.948Y-145.956
X131.948Y-146.456
X131.948Y-146.956
X132.448Y-126.706
X132.448Y-139.456
X132.448Y-139.956
X132.448Y-140.456
X132.448Y-140.956
X132.448Y-142.456
X132.448Y-142.956
X132.448Y-143.456
X132.448Y-143.956
X132.448Y-145.456
X132.448Y-145.956
X132.448Y-146.456
X132.448Y-146.956
X133.165Y-116.773
X133.643Y-105.662
X133.664Y-118.729
X133.815Y-117.344
X133.818Y-126.916
X134.448Y-111.148
X134.951Y-118.576
X135.238Y-114.704
X135.238Y-116.604
X135.306Y-101.807
X135.543Y-105.662
X135.798Y-131.286
X135.798Y-131.786
X135.798Y-132.286
X135.798Y-132.786
X136.018Y-93.946
X136.298Y-131.286
X136.298Y-131.786
X136.298Y-132.286
X136.298Y-132.786
X136.556Y-106.219
X136.948Y-139.456
X136.948Y-139.956
X136.948Y-140.456
X136.948Y-140.956
X136.948Y-142.456
X136.948Y-142.956
X136.948Y-143.456
X136.948Y-143.956
X136.948Y-145.456
X136.948Y-145.956
X136.948Y-146.456
X136.948Y-146.956
X137.008Y-110.096
X137.088Y-118.596
X137.223Y-120.546
X137.246Y-112.108
X137.448Y-139.456
X137.448Y-139.956
X137.448Y-140.456
X137.448Y-140.956
X137.448Y-142.456
X137.448Y-142.956
X137.448Y-143.456
X137.448Y-143.956
X137.448Y-145.456
X137.448Y-145.956
X137.448Y-146.456
X137.448Y-146.956
X137.573Y-110.662
X137.906Y-101.807
X139.028Y-119.566
X139.448Y-116.456
X141.406Y-110.606
X142.028Y-116.246
X142.096Y-111.11
X142.746Y-110.644
X143.238Y-115.426
X143.318Y-110.084
X143.874Y-121.816
X144.258Y-131.426
X144.35Y-126.679
X144.89Y-110.264
X144.89Y-112.164
X145.018Y-130.776
X145.598Y-106.716
X145.678Y-115.966
X145.708Y-130.126
X145.774Y-121.816
X146.25Y-126.679
X146.308Y-129.476
X146.938Y-128.826
X147.316Y-103.807
X147.448Y-142.456
X147.448Y-142.956
X147.658Y-128.176
X147.948Y-142.456
X147.948Y-142.956
X148.368Y-127.526
X148.448Y-142.456
X148.448Y-142.956
X148.536Y-111.632
X148.794Y-120.829
X148.948Y-142.456
X148.948Y-142.956
X148.978Y-109.296
X149.277Y-103.837
X149.278Y-121.466
X149.358Y-110.982
X150.758Y-116.55
X151.118Y-106.566
X151.948Y-121.956
X152.608Y-116.036
X152.608Y-117.306
X152.608Y-118.576
X152.681Y-107.266
X153.973Y-102.696
X154.248Y-140.116
X154.258Y-135.046
X154.612Y-122.436
X154.748Y-140.116
X154.758Y-135.046
X155.248Y-140.116
X155.258Y-135.046
X155.628Y-147.328
X155.748Y-140.116
X155.758Y-135.046
X156.248Y-140.116
X156.258Y-135.046
X156.328Y-117.356
X156.378Y-118.576
X156.398Y-116.076
X156.644Y-122.436
X156.923Y-102.696
X157.533Y-114.816
X157.698Y-140.206
X157.948Y-134.956
X160.563Y-106.423
X160.573Y-104.533
X160.917Y-127.065
X161.201Y-128.619
X162.081Y-126.819
X162.127Y-124.935
X162.307Y-122.916
X162.307Y-123.836
X163.413Y-105.803
X163.413Y-115.963
X163.486Y-127.254
X165.063Y-149.023
X165.063Y-149.523
X165.063Y-150.023
X165.063Y-150.523
X165.063Y-151.023
X165.063Y-151.523
X165.063Y-152.023
X165.563Y-149.023
X165.563Y-149.523
X165.563Y-150.023
X165.563Y-150.523
X165.563Y-151.023
X165.563Y-151.523
X165.563Y-152.023
X169.948Y-58.556
X169.948Y-62.456
X169.948Y-67.556
X169.948Y-71.456
X169.948Y-77.056
X169.948Y-80.956
X169.948Y-90.456
X169.952Y-85.258
X170.563Y-149.023
X170.563Y-149.523
X170.563Y-150.023
X170.563Y-150.523
X170.563Y-151.023
X170.563Y-151.523
X170.563Y-152.023
X171.063Y-149.023
X171.063Y-149.523
X171.063Y-150.023
X171.063Y-150.523
X171.063Y-151.023
X171.063Y-151.523
X171.063Y-152.023
X172.023Y-110.413
X172.023Y-112.156
X172.023Y-113.893
X172.448Y-62.456
X172.448Y-71.456
X172.448Y-80.956
X172.448Y-90.456
X172.678Y-104.533
X172.713Y-105.803
X172.713Y-115.963
X175.448Y-84.73
X175.658Y-104.356
X175.658Y-106.256
X177.548Y-108.656
X177.548Y-114.706
X177.811Y-101.735
X178.528Y-83.43
X178.747Y-106.137
X179.663Y-135.013
X179.828Y-106.086
X180.163Y-135.013
X180.418Y-82.636
X180.663Y-124.853
X180.663Y-135.013
X180.663Y-140.093
X180.708Y-137.366
X180.948Y-120.116
X180.998Y-106.166
X180.998Y-118.656
X181.163Y-135.013
X181.663Y-135.013
X182.088Y-106.136
X182.558Y-101.735
X182.578Y-86.23
X182.583Y-99.576
X182.758Y-122.056
X183.448Y-105.456
X184.573Y-117.639
X185.038Y-153.596
X185.808Y-100.406
X186.478Y-119.036
X187.306Y-99.576
X187.306Y-101.735
X187.446Y-136.626
X187.448Y-104.456
X187.498Y-117.636
X187.938Y-153.596
X187.988Y-67.192
X188.558Y-114.971
X189.448Y-105.456
X189.668Y-129.696
X189.678Y-145.026
X189.712Y-81.561
X190.188Y-126.706
X190.448Y-104.456
X190.518Y-120.176
X190.538Y-153.456
X190.567Y-117.131
X191.128Y-142.086
X191.138Y-123.106
X191.138Y-145.026
X191.528Y-130.996
X192.02Y-118.596
X192.178Y-133.916
X192.348Y-147.866
X192.386Y-101.735
X192.411Y-99.576
X193.245Y-64.855
X193.245Y-67.805
X193.4Y-116.199
X193.849Y-111.797
X194.045Y-121.253
X194.848Y-139.386
X194.943Y-110.751
X194.95Y-145.039
X195.118Y-130.068
X195.118Y-130.703
X195.118Y-131.338
X195.118Y-131.973
X195.749Y-109.765
X195.749Y-111.797
X195.753Y-130.068
X195.753Y-130.703
X195.753Y-131.338
X195.753Y-131.973
X195.948Y-124.986
X196.008Y-151.694
X197.168Y-126.046
X197.323Y-116.553
X197.343Y-114.873
X197.466Y-101.735
X197.476Y-150.964
X197.491Y-99.576
X197.527Y-109.765
X197.527Y-110.913
X198.633Y-109.763
X198.658Y-150.516
X198.928Y-136.996
X199.427Y-109.765
X200.373Y-123.573
X200.718Y-76.406
X200.963Y-122.463
X201.003Y-127.203
X201.243Y-128.313
X201.823Y-125.603
X202.118Y-133.826
X202.448Y-104.456
X202.571Y-99.576
X202.923Y-128.313
X202.968Y-73.696
X203.017Y-74.566
X203.598Y-147.026
X203.788Y-134.866
X204.328Y-79.556
X204.328Y-81.381
X204.448Y-104.456
X204.508Y-148.076
X204.726Y-69.956
X204.884Y-74.937
X205.428Y-131.966
X206.299Y-79.801
X206.598Y-142.436
X206.608Y-143.846
X206.648Y-130.256
X206.678Y-131.786
X206.744Y-71.626
X206.948Y-75.456
X207.626Y-99.576
X207.698Y-143.116
X207.818Y-131.026
X208.698Y-78.456
X208.983Y-106.423
X208.993Y-114.043
X209.131Y-69.617
X209.598Y-72.706
X209.828Y-75.587
X211.177Y-71.755
X211.33Y-77.495
X211.33Y-79.32
X213.971Y-73.685
X216.308Y-75.666
X216.497Y-107.525
X216.497Y-112.605
X219.356Y-73.377
X219.356Y-76.327
X219.484Y-107.763
X219.484Y-112.593
X222.923Y-127.873
X222.933Y-119.913
X224.375Y-107.52
X225.313Y-132.793
X225.313Y-140.433
X225.353Y-142.713
X225.393Y-150.483
X225.413Y-105.62
X228.023Y-118.423
X228.223Y-116.483
X229.192Y-118.396
X229.213Y-130.123
X231.092Y-134.216
X231.092Y-138.841
X231.167Y-144.476
X231.167Y-148.826
X231.32Y-116.594
X231.32Y-118.372
X231.813Y-103.693
X233.023Y-102.733
X233.267Y-134.483
X233.267Y-138.573
X233.267Y-144.743
X233.267Y-148.623
X233.352Y-116.594
X233.412Y-118.396
X233.573Y-128.863
X233.606Y-119.642
T3
X141.487Y-58.492
X141.657Y-96.992
X144.027Y-58.492
X144.197Y-96.992
X146.567Y-58.492
X146.737Y-96.992
X149.107Y-58.492
X149.277Y-96.992
X151.817Y-96.992
X154.357Y-96.992
X156.897Y-96.992
T4
X88.948Y-90.956
X88.948Y-93.456
X88.948Y-95.956
X88.948Y-130.136
X88.948Y-132.636
X88.948Y-135.136
X88.948Y-137.636
T5
X91.078Y-59.816
X91.078Y-62.356
X91.198Y-108.106
X91.198Y-115.706
X93.618Y-59.816
X93.618Y-62.356
X96.158Y-59.816
X96.158Y-62.356
X98.698Y-59.816
X98.698Y-62.356
X101.238Y-59.816
X101.238Y-62.356
X103.778Y-59.816
X103.778Y-62.356
X106.318Y-59.816
X106.318Y-62.356
X108.473Y-134.511
X108.473Y-139.591
X108.858Y-59.816
X108.858Y-62.356
X111.398Y-59.816
X111.398Y-62.356
X113.938Y-59.816
X113.938Y-62.356
X125.108Y-63.496
X132.708Y-63.496
X182.958Y-65.011
X182.958Y-67.551
X182.958Y-70.091
X182.958Y-72.631
X182.958Y-75.171
X182.958Y-77.711
X182.958Y-80.251
X182.958Y-82.791
X236.592Y-103.466
X236.592Y-106.006
X236.592Y-108.546
X236.592Y-111.086
X236.592Y-116.166
X236.592Y-118.706
X236.592Y-121.246
X236.592Y-123.786
X236.592Y-126.326
X236.592Y-128.866
X236.592Y-135.216
X236.592Y-137.756
X236.592Y-145.376
X236.592Y-147.916
T6
X182.958Y-58.901
X182.958Y-88.901
X235.958Y-58.901
X235.958Y-88.901
T7
X102.198Y-90.251
X102.198Y-97.451
X102.198Y-108.456
X102.198Y-115.656
T2
X89.131Y-69.702G85X88.531Y-69.702
G05
X89.131Y-78.342G85X88.531Y-78.342
G05
X93.561Y-69.702G85X92.461Y-69.702
G05
X93.561Y-78.342G85X92.461Y-78.342
G05
T5
X92.828Y-147.499G85X92.828Y-149.499
G05
X94.828Y-153.198G85X96.828Y-153.198
G05
X98.828Y-147.499G85X98.828Y-149.499
G05
M30
