G04 #@! TF.GenerationSoftware,KiCad,Pcbnew,8.0.4*
G04 #@! TF.CreationDate,2024-09-23T19:32:32+09:00*
G04 #@! TF.ProjectId,Solid Rocket Motor Test Station ver 2.0,536f6c69-6420-4526-9f63-6b6574204d6f,2.0*
G04 #@! TF.SameCoordinates,Original*
G04 #@! TF.FileFunction,Soldermask,Top*
G04 #@! TF.FilePolarity,Negative*
%FSLAX46Y46*%
G04 Gerber Fmt 4.6, Leading zero omitted, Abs format (unit mm)*
G04 Created by KiCad (PCBNEW 8.0.4) date 2024-09-23 19:32:32*
%MOMM*%
%LPD*%
G01*
G04 APERTURE LIST*
G04 Aperture macros list*
%AMRoundRect*
0 Rectangle with rounded corners*
0 $1 Rounding radius*
0 $2 $3 $4 $5 $6 $7 $8 $9 X,Y pos of 4 corners*
0 Add a 4 corners polygon primitive as box body*
4,1,4,$2,$3,$4,$5,$6,$7,$8,$9,$2,$3,0*
0 Add four circle primitives for the rounded corners*
1,1,$1+$1,$2,$3*
1,1,$1+$1,$4,$5*
1,1,$1+$1,$6,$7*
1,1,$1+$1,$8,$9*
0 Add four rect primitives between the rounded corners*
20,1,$1+$1,$2,$3,$4,$5,0*
20,1,$1+$1,$4,$5,$6,$7,0*
20,1,$1+$1,$6,$7,$8,$9,0*
20,1,$1+$1,$8,$9,$2,$3,0*%
G04 Aperture macros list end*
%ADD10RoundRect,0.250000X0.262500X0.450000X-0.262500X0.450000X-0.262500X-0.450000X0.262500X-0.450000X0*%
%ADD11RoundRect,0.250000X-0.475000X0.250000X-0.475000X-0.250000X0.475000X-0.250000X0.475000X0.250000X0*%
%ADD12RoundRect,0.250000X1.100000X-0.325000X1.100000X0.325000X-1.100000X0.325000X-1.100000X-0.325000X0*%
%ADD13RoundRect,0.250000X0.475000X-0.250000X0.475000X0.250000X-0.475000X0.250000X-0.475000X-0.250000X0*%
%ADD14RoundRect,0.250000X-0.450000X0.262500X-0.450000X-0.262500X0.450000X-0.262500X0.450000X0.262500X0*%
%ADD15RoundRect,1.500000X-1.500000X1.500000X-1.500000X-1.500000X1.500000X-1.500000X1.500000X1.500000X0*%
%ADD16C,6.000000*%
%ADD17RoundRect,0.135000X0.185000X-0.135000X0.185000X0.135000X-0.185000X0.135000X-0.185000X-0.135000X0*%
%ADD18R,2.000000X2.000000*%
%ADD19C,2.000000*%
%ADD20R,1.700000X1.700000*%
%ADD21O,1.700000X1.700000*%
%ADD22RoundRect,0.250000X-0.650000X0.325000X-0.650000X-0.325000X0.650000X-0.325000X0.650000X0.325000X0*%
%ADD23RoundRect,0.243750X-0.243750X-0.456250X0.243750X-0.456250X0.243750X0.456250X-0.243750X0.456250X0*%
%ADD24RoundRect,0.250000X-0.325000X-1.100000X0.325000X-1.100000X0.325000X1.100000X-0.325000X1.100000X0*%
%ADD25RoundRect,0.250000X-0.262500X-0.450000X0.262500X-0.450000X0.262500X0.450000X-0.262500X0.450000X0*%
%ADD26RoundRect,0.250000X0.250000X0.475000X-0.250000X0.475000X-0.250000X-0.475000X0.250000X-0.475000X0*%
%ADD27RoundRect,0.100000X-0.625000X-0.100000X0.625000X-0.100000X0.625000X0.100000X-0.625000X0.100000X0*%
%ADD28R,1.650000X2.850000*%
%ADD29R,3.000000X1.524000*%
%ADD30RoundRect,0.135000X-0.185000X0.135000X-0.185000X-0.135000X0.185000X-0.135000X0.185000X0.135000X0*%
%ADD31RoundRect,0.150000X-0.512500X-0.150000X0.512500X-0.150000X0.512500X0.150000X-0.512500X0.150000X0*%
%ADD32RoundRect,0.250000X0.625000X-0.312500X0.625000X0.312500X-0.625000X0.312500X-0.625000X-0.312500X0*%
%ADD33RoundRect,0.250000X-0.250000X-0.475000X0.250000X-0.475000X0.250000X0.475000X-0.250000X0.475000X0*%
%ADD34RoundRect,0.243750X0.243750X0.456250X-0.243750X0.456250X-0.243750X-0.456250X0.243750X-0.456250X0*%
%ADD35RoundRect,0.150000X0.150000X-0.587500X0.150000X0.587500X-0.150000X0.587500X-0.150000X-0.587500X0*%
%ADD36C,0.650000*%
%ADD37R,1.450000X0.600000*%
%ADD38R,1.450000X0.300000*%
%ADD39O,2.100000X1.000000*%
%ADD40O,1.600000X1.000000*%
%ADD41RoundRect,0.100000X0.300000X0.100000X-0.300000X0.100000X-0.300000X-0.100000X0.300000X-0.100000X0*%
%ADD42R,3.000000X2.000000*%
%ADD43R,3.200000X1.200000*%
%ADD44RoundRect,0.250000X0.325000X1.100000X-0.325000X1.100000X-0.325000X-1.100000X0.325000X-1.100000X0*%
%ADD45RoundRect,0.250000X0.450000X-0.262500X0.450000X0.262500X-0.450000X0.262500X-0.450000X-0.262500X0*%
%ADD46RoundRect,0.200000X0.200000X0.275000X-0.200000X0.275000X-0.200000X-0.275000X0.200000X-0.275000X0*%
%ADD47RoundRect,0.100000X-0.100000X0.637500X-0.100000X-0.637500X0.100000X-0.637500X0.100000X0.637500X0*%
%ADD48RoundRect,0.218750X-0.381250X0.218750X-0.381250X-0.218750X0.381250X-0.218750X0.381250X0.218750X0*%
%ADD49RoundRect,0.200000X-0.200000X-0.275000X0.200000X-0.275000X0.200000X0.275000X-0.200000X0.275000X0*%
%ADD50RoundRect,0.150000X-0.875000X-0.150000X0.875000X-0.150000X0.875000X0.150000X-0.875000X0.150000X0*%
%ADD51RoundRect,0.175000X-0.175000X0.225000X-0.175000X-0.225000X0.175000X-0.225000X0.175000X0.225000X0*%
%ADD52R,2.000000X3.000000*%
%ADD53RoundRect,0.175000X0.175000X0.575000X-0.175000X0.575000X-0.175000X-0.575000X0.175000X-0.575000X0*%
%ADD54RoundRect,0.175000X0.575000X0.175000X-0.575000X0.175000X-0.575000X-0.175000X0.575000X-0.175000X0*%
%ADD55RoundRect,0.175000X0.175000X-0.575000X0.175000X0.575000X-0.175000X0.575000X-0.175000X-0.575000X0*%
%ADD56RoundRect,0.175000X1.075000X0.175000X-1.075000X0.175000X-1.075000X-0.175000X1.075000X-0.175000X0*%
%ADD57RoundRect,0.150000X0.825000X0.150000X-0.825000X0.150000X-0.825000X-0.150000X0.825000X-0.150000X0*%
%ADD58RoundRect,0.250000X-0.300000X2.050000X-0.300000X-2.050000X0.300000X-2.050000X0.300000X2.050000X0*%
%ADD59RoundRect,0.250002X-5.149998X4.449998X-5.149998X-4.449998X5.149998X-4.449998X5.149998X4.449998X0*%
%ADD60R,0.350000X0.650000*%
%ADD61R,2.400000X1.550000*%
%ADD62C,1.524000*%
%ADD63R,24.000000X33.000000*%
%ADD64RoundRect,0.075000X-0.725000X-0.075000X0.725000X-0.075000X0.725000X0.075000X-0.725000X0.075000X0*%
%ADD65RoundRect,0.075000X-0.075000X-0.725000X0.075000X-0.725000X0.075000X0.725000X-0.075000X0.725000X0*%
%ADD66RoundRect,0.250000X-1.100000X0.325000X-1.100000X-0.325000X1.100000X-0.325000X1.100000X0.325000X0*%
%ADD67RoundRect,0.250000X-0.650000X1.000000X-0.650000X-1.000000X0.650000X-1.000000X0.650000X1.000000X0*%
%ADD68RoundRect,0.250000X0.650000X2.450000X-0.650000X2.450000X-0.650000X-2.450000X0.650000X-2.450000X0*%
%ADD69RoundRect,0.218750X-0.218750X-0.381250X0.218750X-0.381250X0.218750X0.381250X-0.218750X0.381250X0*%
%ADD70R,1.750000X0.450000*%
%ADD71RoundRect,1.500000X1.500000X-1.500000X1.500000X1.500000X-1.500000X1.500000X-1.500000X-1.500000X0*%
%ADD72RoundRect,0.250000X-0.312500X-0.625000X0.312500X-0.625000X0.312500X0.625000X-0.312500X0.625000X0*%
%ADD73RoundRect,0.250000X-0.725000X0.600000X-0.725000X-0.600000X0.725000X-0.600000X0.725000X0.600000X0*%
%ADD74O,1.950000X1.700000*%
%ADD75R,5.400000X2.900000*%
%ADD76R,3.500000X2.500000*%
%ADD77RoundRect,0.250000X-2.050000X-0.300000X2.050000X-0.300000X2.050000X0.300000X-2.050000X0.300000X0*%
%ADD78RoundRect,0.250002X-4.449998X-5.149998X4.449998X-5.149998X4.449998X5.149998X-4.449998X5.149998X0*%
%ADD79RoundRect,0.162500X0.262500X-0.162500X0.262500X0.162500X-0.262500X0.162500X-0.262500X-0.162500X0*%
%ADD80R,1.800000X1.800000*%
%ADD81C,1.800000*%
%ADD82RoundRect,0.250000X-0.625000X0.312500X-0.625000X-0.312500X0.625000X-0.312500X0.625000X0.312500X0*%
%ADD83RoundRect,0.218750X0.218750X0.381250X-0.218750X0.381250X-0.218750X-0.381250X0.218750X-0.381250X0*%
%ADD84R,3.500000X3.500000*%
%ADD85RoundRect,0.750000X-0.750000X-1.000000X0.750000X-1.000000X0.750000X1.000000X-0.750000X1.000000X0*%
%ADD86RoundRect,0.875000X-0.875000X-0.875000X0.875000X-0.875000X0.875000X0.875000X-0.875000X0.875000X0*%
%ADD87RoundRect,0.250000X0.600000X-0.600000X0.600000X0.600000X-0.600000X0.600000X-0.600000X-0.600000X0*%
%ADD88C,1.700000*%
%ADD89C,0.600000*%
%ADD90C,3.200000*%
G04 APERTURE END LIST*
D10*
X114822800Y-93076000D03*
X112997800Y-93076000D03*
D11*
X216689800Y-112671000D03*
X216689800Y-114571000D03*
X184740200Y-136618000D03*
X184740200Y-138518000D03*
D12*
X127823000Y-82892000D03*
X127823000Y-79942000D03*
D13*
X202121600Y-145008000D03*
X202121600Y-143108000D03*
D14*
X131145400Y-104446200D03*
X131145400Y-106271200D03*
D15*
X102197800Y-90251000D03*
D16*
X102197800Y-97451000D03*
D17*
X231391800Y-127488500D03*
X231391800Y-126468500D03*
D18*
X91197800Y-108106000D03*
D19*
X91197800Y-115706000D03*
D20*
X236591800Y-145376000D03*
D21*
X236591800Y-147916000D03*
D22*
X205942200Y-108696200D03*
X205942200Y-111646200D03*
D23*
X177810800Y-101735000D03*
X179685800Y-101735000D03*
D13*
X222941800Y-122836000D03*
X222941800Y-120936000D03*
D11*
X187938200Y-150962600D03*
X187938200Y-152862600D03*
D13*
X160562600Y-106422800D03*
X160562600Y-104522800D03*
D24*
X110722800Y-121956000D03*
X113672800Y-121956000D03*
D11*
X150027800Y-109296000D03*
X150027800Y-111196000D03*
D25*
X182583300Y-99576000D03*
X184408300Y-99576000D03*
D26*
X126897800Y-99956000D03*
X124997800Y-99956000D03*
D11*
X204725600Y-69956200D03*
X204725600Y-71856200D03*
D16*
X112447800Y-151456000D03*
D11*
X187446000Y-136626000D03*
X187446000Y-138526000D03*
D27*
X190546000Y-135751000D03*
X190546000Y-136401000D03*
X190546000Y-137051000D03*
X190546000Y-137701000D03*
X190546000Y-138351000D03*
X190546000Y-139001000D03*
X194846000Y-139001000D03*
X194846000Y-138351000D03*
X194846000Y-137701000D03*
X194846000Y-137051000D03*
X194846000Y-136401000D03*
X194846000Y-135751000D03*
D28*
X192696000Y-137376000D03*
D11*
X233561800Y-119676000D03*
X233561800Y-121576000D03*
X231091800Y-138841000D03*
X231091800Y-140741000D03*
D29*
X124917000Y-94877000D03*
X132717000Y-94877000D03*
X124917000Y-89877000D03*
X132717000Y-89877000D03*
D30*
X219483800Y-106102500D03*
X219483800Y-107122500D03*
D11*
X231166800Y-148826000D03*
X231166800Y-150726000D03*
D31*
X101742700Y-73128200D03*
X101742700Y-74078200D03*
X101742700Y-75028200D03*
X104017700Y-75028200D03*
X104017700Y-74078200D03*
X104017700Y-73128200D03*
D13*
X121893000Y-80397800D03*
X121893000Y-78497800D03*
X197825600Y-138868000D03*
X197825600Y-136968000D03*
D32*
X121337800Y-100723000D03*
X121337800Y-97798000D03*
D13*
X175657800Y-106256000D03*
X175657800Y-104356000D03*
D29*
X169951800Y-90258500D03*
X177751800Y-90258500D03*
X169951800Y-85258500D03*
X177751800Y-85258500D03*
D33*
X192141800Y-123119700D03*
X194041800Y-123119700D03*
D34*
X99585000Y-82914000D03*
X97710000Y-82914000D03*
D35*
X124017800Y-73176000D03*
X125917800Y-73176000D03*
X124967800Y-71301000D03*
D11*
X106918800Y-76140600D03*
X106918800Y-78040600D03*
D33*
X184572600Y-117639200D03*
X186472600Y-117639200D03*
D32*
X229241800Y-121637800D03*
X229241800Y-118712800D03*
D26*
X108927000Y-122456000D03*
X107027000Y-122456000D03*
D11*
X127617800Y-120932000D03*
X127617800Y-122832000D03*
D36*
X92481000Y-71132000D03*
X92481000Y-76912000D03*
D37*
X93926000Y-70772000D03*
X93926000Y-71572000D03*
D38*
X93926000Y-72772000D03*
X93926000Y-73772000D03*
X93926000Y-74272000D03*
X93926000Y-75272000D03*
D37*
X93926000Y-76472000D03*
X93926000Y-77272000D03*
X93926000Y-77272000D03*
X93926000Y-76472000D03*
D38*
X93926000Y-75772000D03*
X93926000Y-74772000D03*
X93926000Y-73272000D03*
X93926000Y-72272000D03*
D37*
X93926000Y-71572000D03*
X93926000Y-70772000D03*
D39*
X93011000Y-69702000D03*
D40*
X88831000Y-69702000D03*
D39*
X93011000Y-78342000D03*
D40*
X88831000Y-78342000D03*
D26*
X197312600Y-115772800D03*
X195412600Y-115772800D03*
D33*
X193122200Y-133895200D03*
X195022200Y-133895200D03*
D13*
X231091800Y-134216000D03*
X231091800Y-132316000D03*
D41*
X219243800Y-110827000D03*
X219243800Y-109527000D03*
X216943800Y-109527000D03*
X216943800Y-110827000D03*
D42*
X148057800Y-132546000D03*
X148057800Y-142546000D03*
D25*
X97395700Y-72909800D03*
X99220700Y-72909800D03*
D43*
X155462600Y-124852800D03*
X155462600Y-135012800D03*
X155462600Y-140092800D03*
X180662600Y-140092800D03*
X180662600Y-135012800D03*
X180662600Y-129932800D03*
X180662600Y-124852800D03*
D20*
X236591800Y-135216000D03*
D21*
X236591800Y-137756000D03*
D25*
X227254300Y-137691000D03*
X229079300Y-137691000D03*
D32*
X199812600Y-153453200D03*
X199812600Y-150528200D03*
D10*
X104894000Y-82660000D03*
X103069000Y-82660000D03*
X126187800Y-152810200D03*
X124362800Y-152810200D03*
D26*
X206409200Y-147019600D03*
X204509200Y-147019600D03*
D23*
X119772800Y-152806000D03*
X121647800Y-152806000D03*
D16*
X229447800Y-65456000D03*
D11*
X202118500Y-131045200D03*
X202118500Y-132945200D03*
D44*
X194431400Y-120179200D03*
X191481400Y-120179200D03*
D14*
X200000600Y-137005500D03*
X200000600Y-138830500D03*
D25*
X227316800Y-145541000D03*
X229141800Y-145541000D03*
D45*
X211329600Y-79320000D03*
X211329600Y-77495000D03*
D22*
X222916800Y-135007800D03*
X222916800Y-137957800D03*
D26*
X208606800Y-70941800D03*
X206706800Y-70941800D03*
D46*
X125787800Y-75436000D03*
X124137800Y-75436000D03*
D25*
X225016800Y-122836000D03*
X226841800Y-122836000D03*
D30*
X231431800Y-120108500D03*
X231431800Y-121128500D03*
D47*
X200216600Y-107596200D03*
X199566600Y-107596200D03*
X198916600Y-107596200D03*
X198266600Y-107596200D03*
X197616600Y-107596200D03*
X196966600Y-107596200D03*
X196316600Y-107596200D03*
X195666600Y-107596200D03*
X195016600Y-107596200D03*
X194366600Y-107596200D03*
X193716600Y-107596200D03*
X193066600Y-107596200D03*
X192416600Y-107596200D03*
X191766600Y-107596200D03*
X191766600Y-113321200D03*
X192416600Y-113321200D03*
X193066600Y-113321200D03*
X193716600Y-113321200D03*
X194366600Y-113321200D03*
X195016600Y-113321200D03*
X195666600Y-113321200D03*
X196316600Y-113321200D03*
X196966600Y-113321200D03*
X197616600Y-113321200D03*
X198266600Y-113321200D03*
X198916600Y-113321200D03*
X199566600Y-113321200D03*
X200216600Y-113321200D03*
D41*
X233566800Y-137166000D03*
X233566800Y-135866000D03*
X231266800Y-135866000D03*
X231266800Y-137166000D03*
D13*
X119353000Y-80397800D03*
X119353000Y-78497800D03*
D23*
X192385800Y-101735000D03*
X194260800Y-101735000D03*
D48*
X124179000Y-80483300D03*
X124179000Y-82608300D03*
D49*
X178035800Y-99576000D03*
X179685800Y-99576000D03*
D23*
X197465800Y-101735000D03*
X199340800Y-101735000D03*
D50*
X163412600Y-104532800D03*
X163412600Y-105802800D03*
X163412600Y-107072800D03*
X163412600Y-108342800D03*
X163412600Y-109612800D03*
X163412600Y-110882800D03*
X163412600Y-112152800D03*
X163412600Y-113422800D03*
X163412600Y-114692800D03*
X163412600Y-115962800D03*
X172712600Y-115962800D03*
X172712600Y-114692800D03*
X172712600Y-113422800D03*
X172712600Y-112152800D03*
X172712600Y-110882800D03*
X172712600Y-109612800D03*
X172712600Y-108342800D03*
X172712600Y-107072800D03*
X172712600Y-105802800D03*
X172712600Y-104532800D03*
D25*
X192410800Y-99576000D03*
X194235800Y-99576000D03*
D13*
X233581800Y-127946000D03*
X233581800Y-126046000D03*
D25*
X187305800Y-99576000D03*
X189130800Y-99576000D03*
D17*
X219483800Y-114131000D03*
X219483800Y-113111000D03*
D33*
X133642600Y-105661600D03*
X135542600Y-105661600D03*
D13*
X225381800Y-145741000D03*
X225381800Y-143841000D03*
D25*
X197490800Y-99576000D03*
X199315800Y-99576000D03*
D51*
X128395800Y-114704000D03*
X128395800Y-116004000D03*
X129395800Y-116004000D03*
X129395800Y-114704000D03*
D52*
X104853800Y-126384000D03*
X94853800Y-126384000D03*
D53*
X197812600Y-122472800D03*
X199082600Y-122472800D03*
X200352600Y-122472800D03*
D54*
X201232600Y-120322800D03*
D55*
X200352600Y-118172800D03*
X199082600Y-118172800D03*
X197812600Y-118172800D03*
D56*
X197332600Y-120322800D03*
D57*
X127445000Y-107232600D03*
X127445000Y-105962600D03*
X127445000Y-104692600D03*
X127445000Y-103422600D03*
X122495000Y-103422600D03*
X122495000Y-104692600D03*
X122495000Y-105962600D03*
X122495000Y-107232600D03*
D58*
X116512800Y-96731000D03*
D59*
X113972800Y-105881000D03*
D58*
X111432800Y-96731000D03*
D49*
X207625800Y-99576000D03*
X209275800Y-99576000D03*
D13*
X208996300Y-109187000D03*
X208996300Y-107287000D03*
D23*
X182558300Y-101735000D03*
X184433300Y-101735000D03*
D24*
X187227800Y-124876000D03*
X190177800Y-124876000D03*
D13*
X211177200Y-71754600D03*
X211177200Y-69854600D03*
D25*
X202570800Y-99576000D03*
X204395800Y-99576000D03*
D33*
X193137400Y-147865200D03*
X195037400Y-147865200D03*
D13*
X225381800Y-149461000D03*
X225381800Y-147561000D03*
D41*
X231401800Y-124466000D03*
X231401800Y-123166000D03*
X229101800Y-123166000D03*
X229101800Y-124466000D03*
D13*
X197475800Y-152864000D03*
X197475800Y-150964000D03*
D60*
X194123200Y-124802000D03*
X193473200Y-124802000D03*
X192823200Y-124802000D03*
X192173200Y-124802000D03*
X192173200Y-127902000D03*
X192823200Y-127902000D03*
X193473200Y-127902000D03*
X194123200Y-127902000D03*
D61*
X193148200Y-126352000D03*
D57*
X227865800Y-109303000D03*
X227865800Y-108033000D03*
X227865800Y-106763000D03*
X227865800Y-105493000D03*
X222915800Y-105493000D03*
X222915800Y-106763000D03*
X222915800Y-108033000D03*
X222915800Y-109303000D03*
D17*
X233266800Y-150263500D03*
X233266800Y-149243500D03*
D62*
X141656600Y-96992400D03*
X144196600Y-96992400D03*
X146736600Y-96992400D03*
X149276600Y-96992400D03*
X151816600Y-96992400D03*
X154356600Y-96992400D03*
X156896600Y-96992400D03*
X149106600Y-58492400D03*
X146566600Y-58492400D03*
X144026600Y-58492400D03*
X141486600Y-58492400D03*
D63*
X149286600Y-77492400D03*
D18*
X125107800Y-63496000D03*
D19*
X132707800Y-63496000D03*
D25*
X211709800Y-111221000D03*
X213534800Y-111221000D03*
D24*
X199172600Y-128322800D03*
X202122600Y-128322800D03*
D16*
X211447800Y-151456000D03*
D64*
X131880800Y-110482000D03*
X131880800Y-110982000D03*
X131880800Y-111482000D03*
X131880800Y-111982000D03*
X131880800Y-112482000D03*
X131880800Y-112982000D03*
X131880800Y-113482000D03*
X131880800Y-113982000D03*
X131880800Y-114482000D03*
X131880800Y-114982000D03*
X131880800Y-115482000D03*
X131880800Y-115982000D03*
X131880800Y-116482000D03*
X131880800Y-116982000D03*
X131880800Y-117482000D03*
X131880800Y-117982000D03*
X131880800Y-118482000D03*
X131880800Y-118982000D03*
X131880800Y-119482000D03*
X131880800Y-119982000D03*
X131880800Y-120482000D03*
X131880800Y-120982000D03*
X131880800Y-121482000D03*
X131880800Y-121982000D03*
X131880800Y-122482000D03*
D65*
X133555800Y-124157000D03*
X134055800Y-124157000D03*
X134555800Y-124157000D03*
X135055800Y-124157000D03*
X135555800Y-124157000D03*
X136055800Y-124157000D03*
X136555800Y-124157000D03*
X137055800Y-124157000D03*
X137555800Y-124157000D03*
X138055800Y-124157000D03*
X138555800Y-124157000D03*
X139055800Y-124157000D03*
X139555800Y-124157000D03*
X140055800Y-124157000D03*
X140555800Y-124157000D03*
X141055800Y-124157000D03*
X141555800Y-124157000D03*
X142055800Y-124157000D03*
X142555800Y-124157000D03*
X143055800Y-124157000D03*
X143555800Y-124157000D03*
X144055800Y-124157000D03*
X144555800Y-124157000D03*
X145055800Y-124157000D03*
X145555800Y-124157000D03*
D64*
X147230800Y-122482000D03*
X147230800Y-121982000D03*
X147230800Y-121482000D03*
X147230800Y-120982000D03*
X147230800Y-120482000D03*
X147230800Y-119982000D03*
X147230800Y-119482000D03*
X147230800Y-118982000D03*
X147230800Y-118482000D03*
X147230800Y-117982000D03*
X147230800Y-117482000D03*
X147230800Y-116982000D03*
X147230800Y-116482000D03*
X147230800Y-115982000D03*
X147230800Y-115482000D03*
X147230800Y-114982000D03*
X147230800Y-114482000D03*
X147230800Y-113982000D03*
X147230800Y-113482000D03*
X147230800Y-112982000D03*
X147230800Y-112482000D03*
X147230800Y-111982000D03*
X147230800Y-111482000D03*
X147230800Y-110982000D03*
X147230800Y-110482000D03*
D65*
X145555800Y-108807000D03*
X145055800Y-108807000D03*
X144555800Y-108807000D03*
X144055800Y-108807000D03*
X143555800Y-108807000D03*
X143055800Y-108807000D03*
X142555800Y-108807000D03*
X142055800Y-108807000D03*
X141555800Y-108807000D03*
X141055800Y-108807000D03*
X140555800Y-108807000D03*
X140055800Y-108807000D03*
X139555800Y-108807000D03*
X139055800Y-108807000D03*
X138555800Y-108807000D03*
X138055800Y-108807000D03*
X137555800Y-108807000D03*
X137055800Y-108807000D03*
X136555800Y-108807000D03*
X136055800Y-108807000D03*
X135555800Y-108807000D03*
X135055800Y-108807000D03*
X134555800Y-108807000D03*
X134055800Y-108807000D03*
X133555800Y-108807000D03*
D66*
X193244800Y-64855000D03*
X193244800Y-67805000D03*
D10*
X127527800Y-111826000D03*
X125702800Y-111826000D03*
D14*
X231740800Y-105027000D03*
X231740800Y-106852000D03*
D11*
X195947800Y-126056000D03*
X195947800Y-127956000D03*
D10*
X104919000Y-80120000D03*
X103094000Y-80120000D03*
D16*
X89047800Y-83956000D03*
D26*
X199680600Y-105447200D03*
X197780600Y-105447200D03*
D33*
X190567000Y-115404000D03*
X192467000Y-115404000D03*
D25*
X211709800Y-109189000D03*
X213534800Y-109189000D03*
D29*
X169951800Y-80606500D03*
X177751800Y-80606500D03*
X169951800Y-75606500D03*
X177751800Y-75606500D03*
D67*
X103197800Y-144706000D03*
X103197800Y-148706000D03*
D45*
X133447800Y-82341000D03*
X133447800Y-80516000D03*
D24*
X192000400Y-145039400D03*
X194950400Y-145039400D03*
D68*
X170612600Y-150522800D03*
X165512600Y-150522800D03*
D13*
X225316800Y-139391000D03*
X225316800Y-137491000D03*
D29*
X169951800Y-71462500D03*
X177751800Y-71462500D03*
X169951800Y-66462500D03*
X177751800Y-66462500D03*
D44*
X195446000Y-131026000D03*
X192496000Y-131026000D03*
X190187800Y-142086000D03*
X187237800Y-142086000D03*
D22*
X223081800Y-145172800D03*
X223081800Y-148122800D03*
D14*
X231740800Y-108536000D03*
X231740800Y-110361000D03*
D13*
X231166800Y-144476000D03*
X231166800Y-142576000D03*
D57*
X157557800Y-119846000D03*
X157557800Y-118576000D03*
X157557800Y-117306000D03*
X157557800Y-116036000D03*
X152607800Y-116036000D03*
X152607800Y-117306000D03*
X152607800Y-118576000D03*
X152607800Y-119846000D03*
D10*
X189803100Y-113321200D03*
X187978100Y-113321200D03*
D69*
X125492800Y-119022000D03*
X127617800Y-119022000D03*
D70*
X116857000Y-82214800D03*
X116857000Y-81564800D03*
X116857000Y-80914800D03*
X116857000Y-80264800D03*
X116857000Y-79614800D03*
X116857000Y-78964800D03*
X116857000Y-78314800D03*
X116857000Y-77664800D03*
X116857000Y-77014800D03*
X116857000Y-76364800D03*
X116857000Y-75714800D03*
X116857000Y-75064800D03*
X116857000Y-74414800D03*
X116857000Y-73764800D03*
X109657000Y-73764800D03*
X109657000Y-74414800D03*
X109657000Y-75064800D03*
X109657000Y-75714800D03*
X109657000Y-76364800D03*
X109657000Y-77014800D03*
X109657000Y-77664800D03*
X109657000Y-78314800D03*
X109657000Y-78964800D03*
X109657000Y-79614800D03*
X109657000Y-80264800D03*
X109657000Y-80914800D03*
X109657000Y-81564800D03*
X109657000Y-82214800D03*
D11*
X121267800Y-120546000D03*
X121267800Y-122446000D03*
D13*
X222941800Y-126736000D03*
X222941800Y-124836000D03*
X216689800Y-107562500D03*
X216689800Y-105662500D03*
D23*
X187305800Y-101735000D03*
X189180800Y-101735000D03*
D27*
X190547000Y-149744200D03*
X190547000Y-150394200D03*
X190547000Y-151044200D03*
X190547000Y-151694200D03*
X190547000Y-152344200D03*
X190547000Y-152994200D03*
X194847000Y-152994200D03*
X194847000Y-152344200D03*
X194847000Y-151694200D03*
X194847000Y-151044200D03*
X194847000Y-150394200D03*
X194847000Y-149744200D03*
D28*
X192697000Y-151369200D03*
D30*
X233266800Y-132743500D03*
X233266800Y-133763500D03*
D13*
X225316800Y-135566000D03*
X225316800Y-133666000D03*
D71*
X102197800Y-115656000D03*
D16*
X102197800Y-108456000D03*
D25*
X225016800Y-124836000D03*
X226841800Y-124836000D03*
D26*
X189647800Y-146666000D03*
X187747800Y-146666000D03*
D20*
X236591800Y-103466000D03*
D21*
X236591800Y-106006000D03*
X236591800Y-108546000D03*
X236591800Y-111086000D03*
D72*
X106354000Y-70214000D03*
X109279000Y-70214000D03*
D73*
X88947800Y-90956000D03*
D74*
X88947800Y-93456000D03*
X88947800Y-95956000D03*
D11*
X123299800Y-116868000D03*
X123299800Y-118768000D03*
D23*
X202545800Y-101735000D03*
X204420800Y-101735000D03*
D25*
X227254300Y-135366000D03*
X229079300Y-135366000D03*
D13*
X129649800Y-121562000D03*
X129649800Y-119662000D03*
D26*
X193837800Y-117446000D03*
X191937800Y-117446000D03*
D30*
X233266800Y-143038500D03*
X233266800Y-144058500D03*
D75*
X116447800Y-137206000D03*
X116447800Y-127306000D03*
D34*
X99585000Y-79874000D03*
X97710000Y-79874000D03*
D20*
X236591800Y-116166000D03*
D21*
X236591800Y-118706000D03*
X236591800Y-121246000D03*
X236591800Y-123786000D03*
X236591800Y-126326000D03*
X236591800Y-128866000D03*
D25*
X97395700Y-75195800D03*
X99220700Y-75195800D03*
X227319300Y-147781000D03*
X229144300Y-147781000D03*
D76*
X119697800Y-140956000D03*
X119697800Y-147560000D03*
D33*
X187757800Y-128486000D03*
X189657800Y-128486000D03*
D77*
X125797800Y-139556000D03*
X125797800Y-141256000D03*
X125797800Y-142956000D03*
D78*
X134947800Y-142956000D03*
D77*
X125797800Y-144656000D03*
X125797800Y-146356000D03*
D29*
X169951800Y-62358500D03*
X177751800Y-62358500D03*
X169951800Y-57358500D03*
X177751800Y-57358500D03*
D79*
X184800600Y-114971200D03*
X186350600Y-114971200D03*
X186350600Y-113321200D03*
X184800600Y-113321200D03*
D23*
X122014800Y-111826000D03*
X123889800Y-111826000D03*
D73*
X88947800Y-130136000D03*
D74*
X88947800Y-132636000D03*
X88947800Y-135136000D03*
X88947800Y-137636000D03*
D11*
X126347800Y-114328000D03*
X126347800Y-116228000D03*
D29*
X155947800Y-147456000D03*
X148147800Y-147456000D03*
X155947800Y-152456000D03*
X148147800Y-152456000D03*
D41*
X233566800Y-147301000D03*
X233566800Y-146001000D03*
X231266800Y-146001000D03*
X231266800Y-147301000D03*
D26*
X206507700Y-134875600D03*
X204607700Y-134875600D03*
D13*
X185042600Y-152883000D03*
X185042600Y-150983000D03*
D80*
X108472798Y-139591000D03*
D81*
X108472798Y-134511000D03*
D17*
X233266800Y-140288500D03*
X233266800Y-139268500D03*
D82*
X229221800Y-126007800D03*
X229221800Y-128932800D03*
D20*
X182957800Y-65011000D03*
D21*
X182957800Y-67551000D03*
X182957800Y-70091000D03*
X182957800Y-72631000D03*
X182957800Y-75171000D03*
X182957800Y-77711000D03*
X182957800Y-80251000D03*
X182957800Y-82791000D03*
D83*
X125678800Y-120800000D03*
X123553800Y-120800000D03*
D84*
X98827800Y-148498500D03*
D85*
X92827800Y-148498500D03*
D86*
X95827800Y-153198500D03*
D26*
X196222600Y-105447200D03*
X194322600Y-105447200D03*
D13*
X209006300Y-113117000D03*
X209006300Y-111217000D03*
D31*
X204333800Y-143120400D03*
X204333800Y-144070400D03*
X204333800Y-145020400D03*
X206608800Y-145020400D03*
X206608800Y-143120400D03*
D45*
X211329600Y-75459200D03*
X211329600Y-73634200D03*
D13*
X151947800Y-124606000D03*
X151947800Y-122706000D03*
D22*
X220291800Y-122317800D03*
X220291800Y-125267800D03*
D33*
X199102600Y-125612800D03*
X201002600Y-125612800D03*
D11*
X187961600Y-65291800D03*
X187961600Y-67191800D03*
D87*
X91077800Y-62356000D03*
D88*
X91077800Y-59816000D03*
X93617800Y-62356000D03*
X93617800Y-59816000D03*
X96157800Y-62356000D03*
X96157800Y-59816000D03*
X98697800Y-62356000D03*
X98697800Y-59816000D03*
X101237800Y-62356000D03*
X101237800Y-59816000D03*
X103777800Y-62356000D03*
X103777800Y-59816000D03*
X106317800Y-62356000D03*
X106317800Y-59816000D03*
X108857800Y-62356000D03*
X108857800Y-59816000D03*
X111397800Y-62356000D03*
X111397800Y-59816000D03*
X113937800Y-62356000D03*
X113937800Y-59816000D03*
D52*
X126041800Y-132028000D03*
X136041800Y-132028000D03*
D31*
X204384600Y-131030000D03*
X204384600Y-131980000D03*
X204384600Y-132930000D03*
X206659600Y-132930000D03*
X206659600Y-131030000D03*
D23*
X207625800Y-101735000D03*
X209500800Y-101735000D03*
D89*
X131243800Y-99576000D03*
X233351800Y-116594000D03*
X231319800Y-116594000D03*
X233605800Y-119642000D03*
X231319800Y-118372000D03*
D90*
X182957800Y-58901000D03*
X235957800Y-58901000D03*
X182957800Y-88901000D03*
X235957800Y-88901000D03*
D89*
X89425000Y-72752000D03*
X95127800Y-126716000D03*
X131947800Y-142456000D03*
X95127800Y-126216000D03*
X119304500Y-78449300D03*
X156922800Y-102696000D03*
X131947800Y-145956000D03*
X116777800Y-99716000D03*
X137447800Y-146456000D03*
X124227800Y-116846000D03*
X137447800Y-140456000D03*
X95127800Y-125716000D03*
X165062600Y-149522800D03*
X131947800Y-139456000D03*
X163412600Y-105802800D03*
X131947800Y-145456000D03*
X136947800Y-143956000D03*
X94627800Y-126716000D03*
X156257800Y-135046000D03*
X100302800Y-130056000D03*
X165062600Y-150022800D03*
X135797800Y-132286000D03*
X169947800Y-77056000D03*
X136947800Y-140456000D03*
X137447800Y-139456000D03*
X135797800Y-131286000D03*
X135797800Y-132786000D03*
X165562600Y-150522800D03*
X120547800Y-147456000D03*
X125797800Y-142956000D03*
X169947800Y-67556000D03*
X136947800Y-142456000D03*
X155757800Y-135046000D03*
X160562600Y-106422800D03*
X206947800Y-75456000D03*
X165562600Y-149022800D03*
X132447800Y-140456000D03*
X154757800Y-135046000D03*
X122562800Y-122586000D03*
X165062600Y-151522800D03*
X165562600Y-151022800D03*
X165062600Y-150522800D03*
X113717800Y-120150000D03*
X113717800Y-121928000D03*
X193244800Y-67805000D03*
X136947800Y-142956000D03*
X132447800Y-145956000D03*
X130447800Y-137456000D03*
X147947800Y-142456000D03*
X116967800Y-139186000D03*
X131947800Y-143456000D03*
X94627800Y-125716000D03*
X137447800Y-146956000D03*
X148447800Y-142456000D03*
X155257800Y-135046000D03*
X157697800Y-140206000D03*
X126378800Y-78497800D03*
X156397800Y-116076000D03*
X118723000Y-143139600D03*
X107113800Y-122436000D03*
X121547800Y-99256000D03*
X132447800Y-142456000D03*
X131947800Y-146956000D03*
X156247800Y-140116000D03*
X131947800Y-139956000D03*
X132447800Y-146956000D03*
X135305800Y-101807000D03*
X121047800Y-147956000D03*
X119772800Y-152806000D03*
X165562600Y-150022800D03*
X165562600Y-151522800D03*
X132447800Y-140956000D03*
X156327800Y-117356000D03*
X96791000Y-77741000D03*
X147447800Y-142956000D03*
X163412600Y-115962800D03*
X144349600Y-126679000D03*
X132447800Y-139456000D03*
X148947800Y-142456000D03*
X121877800Y-78497800D03*
X132447800Y-143956000D03*
X169947800Y-58556000D03*
X132447800Y-126706000D03*
X136947800Y-139956000D03*
X136947800Y-139456000D03*
X137447800Y-143956000D03*
X137087800Y-118596000D03*
X136947800Y-145456000D03*
X139447800Y-116456000D03*
X136297800Y-132786000D03*
X187987800Y-67191800D03*
X125507800Y-116276000D03*
X136297800Y-132286000D03*
X116863000Y-147499600D03*
X112285000Y-80023800D03*
X206298600Y-79800800D03*
X155247800Y-140116000D03*
X135542600Y-105661600D03*
X120547800Y-148456000D03*
X157947800Y-134956000D03*
X95127800Y-127216000D03*
X136947800Y-146456000D03*
X131947800Y-146456000D03*
X92447800Y-133956000D03*
X144889800Y-110264000D03*
X126547800Y-122806000D03*
X165062600Y-149022800D03*
X124537000Y-106802800D03*
X148947800Y-142956000D03*
X148447800Y-142956000D03*
X147447800Y-142456000D03*
X100281200Y-135136000D03*
X137447800Y-145956000D03*
X145773800Y-121816000D03*
X132447800Y-143456000D03*
X127823000Y-79942000D03*
X112285000Y-74539300D03*
X135237800Y-114704000D03*
X106918800Y-78040600D03*
X137447800Y-140956000D03*
X116447800Y-93456000D03*
X94627800Y-127216000D03*
X132447800Y-145456000D03*
X136297800Y-131286000D03*
X154257800Y-135046000D03*
X136947800Y-145956000D03*
X154247800Y-140116000D03*
X122353800Y-124722000D03*
X127535400Y-99322000D03*
X136947800Y-143456000D03*
X92447800Y-131456000D03*
X132447800Y-142956000D03*
X165062600Y-151022800D03*
X131947800Y-140456000D03*
X122099800Y-128786000D03*
X155747800Y-140116000D03*
X132447800Y-146456000D03*
X216308000Y-75666200D03*
X100302800Y-132596000D03*
X136947800Y-140956000D03*
X165562600Y-152022800D03*
X89425000Y-75800000D03*
X135797800Y-131786000D03*
X131145400Y-104446200D03*
X137447800Y-143456000D03*
X169951800Y-85258500D03*
X165062600Y-152022800D03*
X209131054Y-69616800D03*
X131947800Y-140956000D03*
X113994000Y-78314800D03*
X94627800Y-126216000D03*
X121047800Y-147456000D03*
X206743600Y-71625800D03*
X120547800Y-147956000D03*
X121697000Y-143205200D03*
X131947800Y-143956000D03*
X101742700Y-74078200D03*
X147947800Y-142956000D03*
X136297800Y-131786000D03*
X156643800Y-122436000D03*
X165562600Y-149522800D03*
X120397800Y-137371200D03*
X121047800Y-148456000D03*
X137447800Y-142456000D03*
X154747800Y-140116000D03*
X121337800Y-125484000D03*
X137447800Y-142956000D03*
X128475800Y-121974000D03*
X132447800Y-139956000D03*
X156377800Y-118576000D03*
X137447800Y-139956000D03*
X151947800Y-121956000D03*
X124436600Y-91371800D03*
X131947800Y-142956000D03*
X122547800Y-91156000D03*
X219356000Y-76326600D03*
X136947800Y-146956000D03*
X122014800Y-111826000D03*
X137447800Y-145456000D03*
X149357800Y-110982000D03*
X125046200Y-136101200D03*
X133642600Y-105661600D03*
X110447800Y-122956000D03*
X133817800Y-126916000D03*
X110947800Y-121456000D03*
X211329600Y-77495000D03*
X110447800Y-122456000D03*
X148977800Y-109296000D03*
X172447800Y-80956000D03*
X119972800Y-108016000D03*
X110947800Y-120956000D03*
X110447800Y-121456000D03*
X172447800Y-71456000D03*
X172447800Y-62456000D03*
X154611800Y-122436000D03*
X119947800Y-115456000D03*
X119972800Y-104726000D03*
X110447800Y-121956000D03*
X97710000Y-82914000D03*
X110947800Y-122456000D03*
X135237800Y-116604000D03*
X146249600Y-126679000D03*
X129347800Y-82856000D03*
X128449800Y-144635600D03*
X209597800Y-72706000D03*
X123299800Y-118846000D03*
X121849432Y-146012185D03*
X219356000Y-73376600D03*
X172447800Y-90456000D03*
X160572600Y-104532800D03*
X193244800Y-64855000D03*
X153972800Y-102696000D03*
X134447800Y-111148000D03*
X126187800Y-152810200D03*
X139027800Y-119566000D03*
X110947800Y-121956000D03*
X128094200Y-137523600D03*
X157532800Y-114816000D03*
X126347800Y-113736000D03*
X118747800Y-100256000D03*
X114877800Y-99716000D03*
X137905800Y-101807000D03*
X124817800Y-127726000D03*
X121267800Y-120546000D03*
X110447800Y-120956000D03*
X213971200Y-73685000D03*
X204327800Y-81381000D03*
X125787800Y-75436000D03*
X110947800Y-122956000D03*
X127747800Y-83856000D03*
X124997800Y-99956000D03*
X122947800Y-108456000D03*
X144889800Y-112164000D03*
X143873800Y-121816000D03*
X112285000Y-78123800D03*
X114067800Y-79346000D03*
X211177200Y-71754600D03*
X204725600Y-69956200D03*
X224374800Y-107520000D03*
X195752600Y-131337800D03*
X195117600Y-130702800D03*
X231812600Y-103692800D03*
X195117600Y-131337800D03*
X233022600Y-102732800D03*
X228222600Y-116482800D03*
X182583300Y-99576000D03*
X195752600Y-130702800D03*
X195117600Y-131972800D03*
X195752600Y-130067800D03*
X195752600Y-131972800D03*
X195117600Y-130067800D03*
X231091800Y-138841000D03*
X222922600Y-127872800D03*
X228022600Y-118422800D03*
X182558300Y-101735000D03*
X231166800Y-144476000D03*
X204447800Y-104456000D03*
X196007800Y-151694200D03*
X191137800Y-123106000D03*
X195947800Y-124986000D03*
X170562600Y-151022800D03*
X170562600Y-150522800D03*
X198632600Y-109762800D03*
X170562600Y-151522800D03*
X190187800Y-126706000D03*
X225312600Y-140432800D03*
X171062600Y-149022800D03*
X172712600Y-105802800D03*
X199426600Y-109765200D03*
X197490800Y-99576000D03*
X185807800Y-100406000D03*
X201242600Y-128312800D03*
X225392600Y-150482800D03*
X180162600Y-135012800D03*
X231091800Y-134216000D03*
X192385800Y-101735000D03*
X170562600Y-149522800D03*
X171062600Y-151022800D03*
X201002600Y-127202800D03*
X187937800Y-153596000D03*
X225412600Y-105620000D03*
X216497300Y-112605000D03*
X172712600Y-115962800D03*
X194943325Y-110751120D03*
X171062600Y-151522800D03*
X185037800Y-153596000D03*
X181662600Y-135012800D03*
X225312600Y-132792800D03*
X197475800Y-150964000D03*
X171062600Y-150522800D03*
X192347800Y-147866000D03*
X225352600Y-142712800D03*
X190517800Y-120176000D03*
X190447800Y-104456000D03*
X222932600Y-119912800D03*
X205427800Y-131966000D03*
X229191800Y-118396000D03*
X183447800Y-105456000D03*
X171062600Y-150022800D03*
X193848600Y-111797200D03*
X189447800Y-105456000D03*
X208992600Y-114042800D03*
X170562600Y-149022800D03*
X207625800Y-99576000D03*
X208982600Y-106422800D03*
X181162600Y-135012800D03*
X198657800Y-150516000D03*
X189677800Y-145026000D03*
X191127800Y-142086000D03*
X175657800Y-106256000D03*
X229212600Y-130122800D03*
X171062600Y-149522800D03*
X191527800Y-130996000D03*
X216497300Y-107525000D03*
X192177800Y-133916000D03*
X197167800Y-126046000D03*
X186477800Y-119036000D03*
X177810800Y-101735000D03*
X203787800Y-134866000D03*
X201822600Y-125602800D03*
X191137800Y-145026000D03*
X189667800Y-129696000D03*
X187305800Y-101735000D03*
X233411800Y-118396000D03*
X197342600Y-114872800D03*
X192019800Y-118596000D03*
X200962600Y-122462800D03*
X197322600Y-116552800D03*
X193400165Y-116199238D03*
X171062600Y-152022800D03*
X179662600Y-135012800D03*
X203597800Y-147026000D03*
X198927800Y-136996000D03*
X188557800Y-114971200D03*
X202447800Y-104456000D03*
X170562600Y-152022800D03*
X190537800Y-153456000D03*
X202117800Y-133826000D03*
X202570800Y-99576000D03*
X202922600Y-128312800D03*
X231166800Y-148826000D03*
X187497800Y-117636000D03*
X200372600Y-123572800D03*
X180662600Y-135012800D03*
X187447800Y-104456000D03*
X170562600Y-150022800D03*
X233572600Y-128862800D03*
X204507800Y-148076000D03*
X190567000Y-117131200D03*
X172677800Y-104532800D03*
X187305800Y-99576000D03*
X194044800Y-121253000D03*
X175657800Y-104356000D03*
X179827800Y-106086000D03*
X184572600Y-117639200D03*
X152607800Y-117306000D03*
X152607800Y-116036000D03*
X150757800Y-116550500D03*
X152607800Y-118576000D03*
X134950600Y-118576000D03*
X95877800Y-70786000D03*
X96722500Y-79866000D03*
X119559800Y-130372000D03*
X133815254Y-117343960D03*
X133165254Y-116772524D03*
X122927800Y-130950500D03*
X114957800Y-97226000D03*
X128823997Y-123250402D03*
X118737800Y-95936000D03*
X129537800Y-123796000D03*
X204327800Y-79556000D03*
X204884176Y-74937300D03*
X189712420Y-81561000D03*
X202967800Y-73696000D03*
X208697800Y-78456000D03*
X211329600Y-79320000D03*
X200717800Y-76406000D03*
X209827800Y-75587300D03*
X203017420Y-74565620D03*
X148535919Y-111632000D03*
X145597800Y-106716000D03*
X137573107Y-110662068D03*
X120337800Y-109666000D03*
X137007800Y-110096000D03*
X120577800Y-106476000D03*
X91250000Y-72752000D03*
X95109257Y-74422000D03*
X95109257Y-73122000D03*
X91250000Y-75800000D03*
X233266800Y-138572800D03*
X233266800Y-134482800D03*
X219483800Y-112592800D03*
X136555800Y-106219500D03*
X112285000Y-76364300D03*
X155627800Y-147328000D03*
X137222800Y-120546000D03*
X147657800Y-128176000D03*
X162307420Y-123835620D03*
X162127040Y-124935240D03*
X146937800Y-128826000D03*
X144257800Y-131426000D03*
X163485519Y-127253719D03*
X219483800Y-107762800D03*
X143237800Y-115426000D03*
X142027800Y-116246000D03*
X145017800Y-130776000D03*
X161200900Y-128619100D03*
X192410800Y-99576000D03*
X207817800Y-131026000D03*
X197526600Y-109765200D03*
X206647800Y-130256000D03*
X197526600Y-110912800D03*
X206677800Y-131786000D03*
X148367800Y-127526000D03*
X162307420Y-122916380D03*
X207697800Y-143116000D03*
X195748600Y-109765200D03*
X195748600Y-111797200D03*
X206607800Y-143846000D03*
X206597800Y-142436000D03*
X197465800Y-101735000D03*
X131851501Y-108957339D03*
X178527800Y-83429553D03*
X187446000Y-136626000D03*
X180662600Y-124852800D03*
X194847800Y-139386000D03*
X178747114Y-106136686D03*
X125617800Y-79916000D03*
X149277800Y-121466000D03*
X126041800Y-132028000D03*
X124537000Y-104902800D03*
X182087800Y-106136000D03*
X180947800Y-120116000D03*
X180707800Y-137366000D03*
X180662600Y-140092800D03*
X162081280Y-126819480D03*
X145707800Y-130126000D03*
X148794031Y-120828840D03*
X118087800Y-82216000D03*
X182757800Y-122056000D03*
X180997800Y-118656000D03*
X180997800Y-106166000D03*
X194950400Y-145039400D03*
X160916660Y-127064860D03*
X146307800Y-129476000D03*
X233266800Y-148622800D03*
X233266800Y-144742800D03*
X172022800Y-113892801D03*
X172022800Y-112156000D03*
X172022800Y-110412800D03*
X177547800Y-114706000D03*
X177547800Y-108656000D03*
X120282800Y-111511000D03*
X137246040Y-112107761D03*
X180417800Y-82636000D03*
X131831260Y-108157593D03*
X131897800Y-109756000D03*
X175447800Y-84729553D03*
X130490668Y-107257572D03*
X131785310Y-107358911D03*
X182577800Y-86229553D03*
X117908800Y-121739000D03*
X133663512Y-118728753D03*
X145677800Y-115966000D03*
X136017800Y-93946000D03*
X169947800Y-62456000D03*
X141405800Y-110606304D03*
X142095881Y-111110338D03*
X169947800Y-71456000D03*
X169947800Y-80956000D03*
X142745629Y-110643614D03*
X143317728Y-110084411D03*
X169947800Y-90456000D03*
X149276600Y-103837200D03*
X152681385Y-107266108D03*
X151117800Y-106566108D03*
X147316303Y-103807497D03*
M02*
